<?xml version="1.0" encoding="utf-8"?>
<!DOCTYPE svg PUBLIC "-//W3C//DTD SVG 1.0//EN" "http://www.w3.org/TR/2001/REC-SVG-20010904/DTD/svg10.dtd" [
<!ENTITY ns_svg "http://www.w3.org/2000/svg">
]>
<svg xmlns="&ns_svg;" width="768" height="960" overflow="visible">
    <g id="Layer_1">
        <rect x="0" y="0" rx="25.3333" ry="25.3333" width="768" height="960" fill="none" stroke="#000000"/>
        <polyline fill="none" stroke="#000000" stroke-width="1" points="  0,96 45.8704,96 45.8704,96 47.627,96.2765 49.2135,97.0794 50.4767,98.3309 51.2942,99.9099 51.5871,101.664 51.3268,103.423 50.5387,105.017 49.299,106.291 49.299,106.291 47.0675,108.586 45.649,111.455 45.1806,114.621 45.7076,117.778 47.1792,120.621 49.4529,122.873 52.3087,124.318 55.4704,124.816 58.6322,124.318 61.488,122.873 63.7617,120.621 65.2333,117.778 65.7603,114.621 65.2919,111.455 63.8734,108.586 61.6419,106.291 61.6419,106.291 60.4022,105.017 59.6141,103.423 59.3538,101.664 59.6467,99.9099 60.4642,98.3309 61.7274,97.0794 63.3139,96.2765 65.0704,96 65.0704,96 96,96 "/>
        <polyline fill="none" stroke="#000000" stroke-width="1" points="  96,96 143.887,96 143.887,96 145.355,95.7793 146.695,95.1367 147.786,94.129 148.533,92.845 148.87,91.3982 148.767,89.9163 148.233,88.5302 147.315,87.3621 147.315,87.3621 145.663,85.2596 144.702,82.7646 144.516,80.0972 145.122,77.4929 146.467,75.1818 148.432,73.3679 150.842,72.2112 153.487,71.814 156.131,72.2112 158.541,73.3679 160.506,75.1818 161.851,77.4929 162.457,80.0972 162.271,82.7646 161.31,85.2596 159.658,87.3621 159.658,87.3621 158.74,88.5302 158.206,89.9163 158.103,91.3982 158.44,92.845 159.187,94.129 160.278,95.1367 161.618,95.7793 163.087,96 163.087,96 192,96 "/>
        <polyline fill="none" stroke="#000000" stroke-width="1" points="  192,96 223.767,96 223.767,96 225.512,95.7257 227.089,94.9294 228.345,93.6879 229.16,92.1208 229.454,90.3794 229.201,88.6315 228.423,87.0458 227.196,85.7751 227.196,85.7751 224.988,83.4879 223.588,80.6336 223.131,77.4874 223.661,74.3528 225.128,71.5321 227.389,69.2973 230.227,67.8639 233.367,67.3703 236.508,67.8639 239.346,69.2973 241.607,71.5321 243.073,74.3528 243.604,77.4874 243.147,80.6336 241.747,83.4879 239.539,85.7751 239.539,85.7751 238.312,87.0458 237.534,88.6315 237.281,90.3794 237.575,92.1208 238.39,93.6879 239.646,94.9294 241.223,95.7257 242.967,96 242.967,96 288,96 "/>
        <polyline fill="none" stroke="#000000" stroke-width="1" points="  288,96 333.651,96 333.651,96 335.065,96.2101 336.358,96.8222 337.416,97.7835 338.149,99.011 338.494,100.399 338.42,101.826 337.935,103.171 337.08,104.317 337.08,104.317 335.54,106.379 334.666,108.8 334.534,111.37 335.155,113.868 336.475,116.077 338.38,117.808 340.706,118.91 343.251,119.288 345.797,118.91 348.123,117.808 350.028,116.077 351.348,113.868 351.968,111.37 351.836,108.8 350.962,106.379 349.423,104.317 349.423,104.317 348.567,103.171 348.082,101.826 348.008,100.399 348.353,99.011 349.086,97.7835 350.145,96.8222 351.437,96.2101 352.851,96 352.851,96 384,96 "/>
        <polyline fill="none" stroke="#000000" stroke-width="1" points="  384,96 417.929,96 417.929,96 419.599,95.7403 421.111,94.9859 422.323,93.8078 423.119,92.3175 423.426,90.6556 423.213,88.9792 422.501,87.4465 421.358,86.2023 421.358,86.2023 419.299,83.9628 418.018,81.204 417.635,78.1864 418.187,75.1951 419.621,72.5125 421.802,70.392 424.524,69.034 427.529,68.5666 430.535,69.034 433.257,70.392 435.438,72.5125 436.871,75.1951 437.423,78.1864 437.04,81.204 435.759,83.9628 433.701,86.2023 433.701,86.2023 432.557,87.4465 431.845,88.9792 431.633,90.6556 431.939,92.3175 432.736,93.8078 433.947,94.9859 435.459,95.7403 437.129,96 437.129,96 480,96 "/>
        <polyline fill="none" stroke="#000000" stroke-width="1" points="  480,96 527.417,96 527.417,96 529.164,95.7254 530.742,94.9279 532,93.6846 532.815,92.1155 533.109,90.3719 532.854,88.6221 532.075,87.0349 530.846,85.7636 530.846,85.7636 528.634,83.4751 527.23,80.6183 526.772,77.4686 527.301,74.3301 528.769,71.5057 531.032,69.2678 533.873,67.8324 537.017,67.338 540.162,67.8324 543.002,69.2678 545.266,71.5057 546.733,74.3301 547.263,77.4686 546.804,80.6183 545.401,83.4751 543.189,85.7636 543.189,85.7636 541.96,87.0349 541.18,88.6221 540.925,90.3719 541.22,92.1155 542.035,93.6846 543.292,94.9279 544.87,95.7254 546.617,96 546.617,96 576,96 "/>
        <polyline fill="none" stroke="#000000" stroke-width="1" points="  576,96 617.578,96 617.578,96 619.086,95.7719 620.458,95.108 621.572,94.0679 622.329,92.7446 622.66,91.2566 622.536,89.7373 621.968,88.3227 621.007,87.1395 621.007,87.1395 619.277,85.0098 618.255,82.4635 618.032,79.7287 618.628,77.0505 619.99,74.6685 621.996,72.7962 624.465,71.6013 627.178,71.1907 629.891,71.6013 632.361,72.7962 634.367,74.6685 635.729,77.0505 636.325,79.7287 636.102,82.4635 635.08,85.0098 633.35,87.1395 633.35,87.1395 632.389,88.3227 631.821,89.7373 631.697,91.2566 632.028,92.7446 632.785,94.0679 633.899,95.108 635.271,95.7719 636.778,96 636.778,96 672,96 "/>
        <polyline fill="none" stroke="#000000" stroke-width="1" points="  672,96 708.383,96 708.383,96 710.141,96.277 711.73,97.081 712.994,98.3344 713.812,99.9157 714.105,101.672 713.843,103.433 713.053,105.029 711.811,106.304 711.811,106.304 709.575,108.6 708.153,111.472 707.683,114.642 708.209,117.803 709.682,120.649 711.958,122.905 714.817,124.353 717.983,124.851 721.148,124.353 724.008,122.905 726.284,120.649 727.756,117.803 728.283,114.642 727.812,111.472 726.39,108.6 724.154,106.304 724.154,106.304 722.912,105.029 722.122,103.433 721.86,101.672 722.153,99.9157 722.971,98.3344 724.235,97.081 725.824,96.277 727.583,96 727.583,96 768,96 "/>
        <polyline fill="none" stroke="#000000" stroke-width="1" points="  0,192 45.245,192 45.245,192 46.7004,192.218 48.0279,192.853 49.1111,193.849 49.8548,195.119 50.1936,196.551 50.0978,198.02 49.5758,199.396 48.6735,200.558 48.6735,200.558 47.0494,202.651 46.1099,205.128 45.9375,207.771 46.5473,210.349 47.8859,212.635 49.8356,214.428 52.2253,215.571 54.845,215.963 57.4647,215.571 59.8543,214.428 61.804,212.635 63.1426,210.349 63.7524,207.771 63.58,205.128 62.6405,202.651 61.0164,200.558 61.0164,200.558 60.1141,199.396 59.5921,198.02 59.4964,196.551 59.8352,195.119 60.5788,193.849 61.662,192.853 62.9896,192.218 64.445,192 64.445,192 96,192 "/>
        <polyline fill="none" stroke="#000000" stroke-width="1" points="  96,192 143.207,192 143.207,192 144.748,192.235 146.15,192.918 147.285,193.987 148.05,195.346 148.376,196.87 148.234,198.423 147.635,199.863 146.635,201.06 146.635,201.06 144.836,203.213 143.759,205.805 143.502,208.6 144.089,211.345 145.466,213.79 147.509,215.715 150.032,216.944 152.807,217.367 155.582,216.944 158.105,215.715 160.148,213.79 161.525,211.345 162.112,208.6 161.855,205.805 160.778,203.213 158.978,201.06 158.978,201.06 157.978,199.863 157.38,198.423 157.237,196.87 157.564,195.346 158.329,193.987 159.464,192.918 160.865,192.235 162.407,192 162.407,192 192,192 "/>
        <polyline fill="none" stroke="#000000" stroke-width="1" points="  192,192 231.553,192 231.553,192 233.137,192.243 234.576,192.95 235.736,194.055 236.512,195.457 236.831,197.028 236.666,198.622 236.03,200.093 234.982,201.306 234.982,201.306 233.096,203.488 231.951,206.136 231.652,209.006 232.228,211.832 233.624,214.357 235.713,216.346 238.302,217.618 241.153,218.056 244.005,217.618 246.594,216.346 248.682,214.357 250.079,211.832 250.654,209.006 250.355,206.136 249.211,203.488 247.325,201.306 247.325,201.306 246.277,200.093 245.641,198.622 245.475,197.028 245.795,195.457 246.57,194.055 247.731,192.95 249.169,192.243 250.753,192 250.753,192 288,192 "/>
        <polyline fill="none" stroke="#000000" stroke-width="1" points="  288,192 334.932,192 334.932,192 336.582,191.744 338.077,191.001 339.276,189.84 340.068,188.37 340.378,186.729 340.176,185.072 339.482,183.553 338.36,182.316 338.36,182.316 336.342,180.09 335.092,177.356 334.729,174.373 335.286,171.42 336.711,168.774 338.871,166.684 341.562,165.346 344.532,164.885 347.502,165.346 350.193,166.684 352.352,168.774 353.777,171.42 354.334,174.373 353.971,177.356 352.722,180.09 350.703,182.316 350.703,182.316 349.582,183.553 348.888,185.072 348.686,186.729 348.995,188.37 349.787,189.84 350.987,191.001 352.482,191.744 354.132,192 354.132,192 384,192 "/>
        <polyline fill="none" stroke="#000000" stroke-width="1" points="  384,192 423.626,192 423.626,192 425.213,192.244 426.654,192.952 427.816,194.059 428.592,195.465 428.911,197.038 428.744,198.634 428.106,200.107 427.055,201.321 427.055,201.321 425.163,203.506 424.014,206.157 423.713,209.031 424.288,211.863 425.685,214.392 427.777,216.386 430.37,217.661 433.226,218.099 436.082,217.661 438.676,216.386 440.767,214.392 442.165,211.863 442.739,209.031 442.438,206.157 441.289,203.506 439.398,201.321 439.398,201.321 438.347,200.107 437.708,198.634 437.541,197.038 437.86,195.465 438.637,194.059 439.799,192.952 441.239,192.244 442.826,192 442.826,192 480,192 "/>
        <polyline fill="none" stroke="#000000" stroke-width="1" points="  480,192 526.025,192 526.025,192 527.44,191.79 528.733,191.177 529.792,190.216 530.525,188.987 530.87,187.599 530.796,186.171 530.31,184.825 529.454,183.679 529.454,183.679 527.913,181.617 527.038,179.195 526.905,176.624 527.526,174.125 528.846,171.914 530.752,170.183 533.079,169.081 535.625,168.702 538.172,169.081 540.499,170.183 542.405,171.914 543.725,174.125 544.345,176.624 544.212,179.195 543.338,181.617 541.797,183.679 541.797,183.679 540.941,184.825 540.455,186.171 540.381,187.599 540.726,188.987 541.459,190.216 542.518,191.177 543.81,191.79 545.225,192 545.225,192 576,192 "/>
        <polyline fill="none" stroke="#000000" stroke-width="1" points="  576,192 605.975,192 605.975,192 607.395,191.789 608.691,191.174 609.752,190.208 610.487,188.976 610.831,187.583 610.755,186.15 610.265,184.801 609.404,183.653 609.404,183.653 607.854,181.587 606.972,179.16 606.835,176.58 607.454,174.073 608.776,171.854 610.687,170.116 613.02,169.009 615.575,168.629 618.13,169.009 620.464,170.116 622.374,171.854 623.696,174.073 624.316,176.58 624.179,179.16 623.297,181.587 621.747,183.653 621.747,183.653 620.886,184.801 620.396,186.15 620.319,187.583 620.664,188.976 621.398,190.208 622.459,191.174 623.756,191.789 625.175,192 625.175,192 672,192 "/>
        <polyline fill="none" stroke="#000000" stroke-width="1" points="  672,192 701.691,192 701.691,192 703.38,191.737 704.908,190.972 706.131,189.778 706.932,188.268 707.236,186.587 707.013,184.892 706.284,183.346 705.12,182.096 705.12,182.096 703.024,179.844 701.713,177.061 701.312,174.011 701.858,170.984 703.301,168.267 705.501,166.118 708.252,164.741 711.291,164.268 714.331,164.741 717.081,166.118 719.282,168.267 720.724,170.984 721.271,174.011 720.87,177.061 719.559,179.844 717.463,182.096 717.463,182.096 716.299,183.346 715.57,184.892 715.347,186.587 715.651,188.268 716.452,189.778 717.675,190.972 719.203,191.737 720.891,192 720.891,192 768,192 "/>
        <polyline fill="none" stroke="#000000" stroke-width="1" points="  0,288 41.7394,288 41.7394,288 43.444,287.734 44.986,286.96 46.2183,285.752 47.0234,284.226 47.3244,282.527 47.0926,280.818 46.3502,279.26 45.168,278.004 45.168,278.004 43.04,275.742 41.7037,272.939 41.2866,269.861 41.8284,266.803 43.2775,264.057 45.4956,261.883 48.2712,260.49 51.3394,260.011 54.4077,260.49 57.1833,261.883 59.4014,264.057 60.8505,266.803 61.3923,269.861 60.9752,272.939 59.6389,275.742 57.5109,278.004 57.5109,278.004 56.3286,279.26 55.5863,280.818 55.3545,282.527 55.6555,284.226 56.4606,285.752 57.6929,286.96 59.2348,287.734 60.9394,288 60.9394,288 96,288 "/>
        <polyline fill="none" stroke="#000000" stroke-width="1" points="  96,288 129.837,288 129.837,288 131.351,288.229 132.73,288.897 133.848,289.944 134.607,291.274 134.937,292.77 134.809,294.296 134.235,295.716 133.266,296.902 133.266,296.902 131.521,299.037 130.487,301.593 130.257,304.34 130.852,307.032 132.217,309.427 134.23,311.311 136.711,312.513 139.437,312.926 142.163,312.513 144.644,311.311 146.658,309.427 148.023,307.032 148.617,304.34 148.387,301.593 147.353,299.037 145.609,296.902 145.609,296.902 144.639,295.716 144.065,294.296 143.937,292.77 144.267,291.274 145.026,289.944 146.144,288.897 147.523,288.229 149.037,288 149.037,288 192,288 "/>
        <polyline fill="none" stroke="#000000" stroke-width="1" points="  192,288 237.366,288 237.366,288 239.078,288.268 240.627,289.046 241.864,290.26 242.671,291.794 242.971,293.501 242.734,295.219 241.985,296.782 240.794,298.041 240.794,298.041 238.651,300.308 237.302,303.121 236.877,306.212 237.417,309.285 238.869,312.046 241.096,314.231 243.883,315.632 246.966,316.115 250.048,315.632 252.836,314.231 255.062,312.046 256.515,309.285 257.054,306.212 256.63,303.121 255.281,300.308 253.137,298.041 253.137,298.041 251.946,296.782 251.197,295.219 250.961,293.501 251.261,291.794 252.068,290.26 253.305,289.046 254.853,288.268 256.566,288 256.566,288 288,288 "/>
        <polyline fill="none" stroke="#000000" stroke-width="1" points="  288,288 323.981,288 323.981,288 325.684,287.734 327.224,286.961 328.455,285.756 329.259,284.232 329.561,282.535 329.33,280.828 328.589,279.272 327.41,278.016 327.41,278.016 325.286,275.755 323.953,272.955 323.538,269.881 324.08,266.827 325.528,264.084 327.744,261.914 330.517,260.523 333.581,260.045 336.646,260.523 339.418,261.914 341.634,264.084 343.082,266.827 343.624,269.881 343.209,272.955 341.876,275.755 339.752,278.016 339.752,278.016 338.573,279.272 337.832,280.828 337.602,282.535 337.903,284.232 338.707,285.756 339.938,286.961 341.479,287.734 343.181,288 343.181,288 384,288 "/>
        <polyline fill="none" stroke="#000000" stroke-width="1" points="  384,288 424.48,288 424.48,288 426.249,288.279 427.846,289.088 429.116,290.35 429.936,291.941 430.227,293.708 429.961,295.478 429.162,297.081 427.909,298.359 427.909,298.359 425.654,300.661 424.216,303.545 423.736,306.732 424.26,309.912 425.736,312.776 428.023,315.047 430.897,316.504 434.08,317.006 437.264,316.504 440.138,315.047 442.424,312.776 443.901,309.912 444.425,306.732 443.945,303.545 442.507,300.661 440.252,298.359 440.252,298.359 438.999,297.081 438.2,295.478 437.934,293.708 438.224,291.941 439.045,290.35 440.315,289.088 441.912,288.279 443.68,288 443.68,288 480,288 "/>
        <polyline fill="none" stroke="#000000" stroke-width="1" points="  480,288 524.08,288 524.08,288 525.66,287.758 527.094,287.053 528.252,285.952 529.027,284.553 529.347,282.987 529.184,281.397 528.551,279.929 527.508,278.718 527.508,278.718 525.631,276.538 524.492,273.896 524.198,271.034 524.774,268.215 526.169,265.698 528.253,263.715 530.836,262.447 533.68,262.011 536.524,262.447 539.106,263.715 541.19,265.698 542.585,268.215 543.161,271.034 542.867,273.896 541.729,276.538 539.851,278.718 539.851,278.718 538.808,279.929 538.176,281.397 538.012,282.987 538.332,284.553 539.107,285.952 540.265,287.053 541.7,287.758 543.28,288 543.28,288 576,288 "/>
        <polyline fill="none" stroke="#000000" stroke-width="1" points="  576,288 610.364,288 610.364,288 611.933,287.76 613.359,287.061 614.511,285.968 615.283,284.58 615.605,283.025 615.447,281.445 614.824,279.985 613.792,278.778 613.792,278.778 611.935,276.604 610.813,273.976 610.529,271.131 611.108,268.332 612.498,265.835 614.571,263.867 617.138,262.61 619.964,262.177 622.789,262.61 625.356,263.867 627.429,265.835 628.819,268.332 629.398,271.131 629.114,273.976 627.992,276.604 626.135,278.778 626.135,278.778 625.104,279.985 624.48,281.445 624.322,283.025 624.644,284.58 625.416,285.968 626.568,287.061 627.994,287.76 629.564,288 629.564,288 672,288 "/>
        <polyline fill="none" stroke="#000000" stroke-width="1" points="  672,288 715.532,288 715.532,288 717.186,288.257 718.685,289.002 719.887,290.167 720.68,291.641 720.989,293.286 720.785,294.948 720.087,296.469 718.961,297.708 718.961,297.708 716.934,299.937 715.677,302.676 715.31,305.666 715.866,308.628 717.293,311.281 719.457,313.378 722.155,314.72 725.132,315.182 728.109,314.72 730.807,313.378 732.971,311.281 734.398,308.628 734.954,305.666 734.587,302.676 733.33,299.937 731.303,297.708 731.303,297.708 730.177,296.469 729.479,294.948 729.275,293.286 729.584,291.641 730.377,290.167 731.579,289.002 733.078,288.257 734.732,288 734.732,288 768,288 "/>
        <polyline fill="none" stroke="#000000" stroke-width="1" points="  0,384 45.9056,384 45.9056,384 47.4214,384.23 48.801,384.898 49.9204,385.946 50.6792,387.278 51.0091,388.775 50.8805,390.303 50.3049,391.724 49.3341,392.91 49.3341,392.91 47.5867,395.046 46.5507,397.604 46.3192,400.354 46.913,403.049 48.2788,405.447 50.2939,407.332 52.7772,408.536 55.5056,408.949 58.234,408.536 60.7173,407.332 62.7323,405.447 64.0981,403.049 64.6919,400.354 64.4605,397.604 63.4245,395.046 61.677,392.91 61.677,392.91 60.7062,391.724 60.1306,390.303 60.002,388.775 60.3319,387.278 61.0907,385.946 62.2102,384.898 63.5898,384.23 65.1056,384 65.1056,384 96,384 "/>
        <polyline fill="none" stroke="#000000" stroke-width="1" points="  96,384 143.558,384 143.558,384 145.049,384.225 146.408,384.88 147.514,385.908 148.266,387.215 148.6,388.686 148.484,390.191 147.93,391.594 146.986,392.771 146.986,392.771 145.288,394.89 144.29,397.416 144.082,400.123 144.682,402.772 146.037,405.125 148.026,406.974 150.472,408.154 153.158,408.559 155.843,408.154 158.289,406.974 160.278,405.125 161.633,402.772 162.233,400.123 162.025,397.416 161.028,394.89 159.329,392.771 159.329,392.771 158.385,391.594 157.831,390.191 157.716,388.686 158.049,387.215 158.802,385.908 159.907,384.88 161.266,384.225 162.758,384 162.758,384 192,384 "/>
        <polyline fill="none" stroke="#000000" stroke-width="1" points="  192,384 236.162,384 236.162,384 237.775,383.751 239.239,383.028 240.416,381.898 241.199,380.466 241.515,378.865 241.333,377.242 240.671,375.75 239.591,374.527 239.591,374.527 237.646,372.324 236.455,369.639 236.128,366.719 236.695,363.836 238.104,361.258 240.224,359.224 242.858,357.923 245.762,357.475 248.666,357.923 251.3,359.224 253.42,361.258 254.829,363.836 255.396,366.719 255.069,369.639 253.878,372.324 251.933,374.527 251.933,374.527 250.853,375.75 250.191,377.242 250.01,378.865 250.325,380.466 251.108,381.898 252.285,383.028 253.749,383.751 255.362,384 255.362,384 288,384 "/>
        <polyline fill="none" stroke="#000000" stroke-width="1" points="  288,384 323.935,384 323.935,384 325.517,383.757 326.953,383.052 328.112,381.949 328.887,380.549 329.207,378.981 329.043,377.389 328.409,375.92 327.364,374.708 327.364,374.708 325.482,372.527 324.341,369.882 324.045,367.017 324.621,364.194 326.016,361.674 328.102,359.688 330.688,358.418 333.535,357.982 336.382,358.418 338.968,359.688 341.054,361.674 342.449,364.194 343.025,367.017 342.729,369.882 341.588,372.527 339.706,374.708 339.706,374.708 338.661,375.92 338.027,377.389 337.863,378.981 338.183,380.549 338.958,381.949 340.117,383.052 341.553,383.757 343.135,384 343.135,384 384,384 "/>
        <polyline fill="none" stroke="#000000" stroke-width="1" points="  384,384 428.963,384 428.963,384 430.634,383.74 432.147,382.985 433.359,381.806 434.156,380.315 434.462,378.652 434.249,376.975 433.537,375.441 432.392,374.197 432.392,374.197 430.332,371.957 429.049,369.197 428.665,366.178 429.217,363.184 430.651,360.5 432.833,358.378 435.556,357.019 438.563,356.552 441.571,357.019 444.294,358.378 446.476,360.5 447.91,363.184 448.462,366.178 448.078,369.197 446.795,371.957 444.735,374.197 444.735,374.197 443.59,375.441 442.878,376.975 442.665,378.652 442.971,380.315 443.768,381.806 444.98,382.985 446.493,383.74 448.163,384 448.163,384 480,384 "/>
        <polyline fill="none" stroke="#000000" stroke-width="1" points="  480,384 513.086,384 513.086,384 514.693,384.247 516.151,384.967 517.325,386.092 518.106,387.517 518.422,389.112 518.244,390.728 517.588,392.216 516.514,393.437 516.514,393.437 514.582,395.635 513.401,398.313 513.08,401.222 513.649,404.092 515.056,406.659 517.169,408.683 519.793,409.978 522.686,410.424 525.578,409.978 528.203,408.683 530.316,406.659 531.722,404.092 532.291,401.222 531.97,398.313 530.789,395.635 528.857,393.437 528.857,393.437 527.784,392.216 527.128,390.728 526.949,389.112 527.265,387.517 528.047,386.092 529.221,384.967 530.679,384.247 532.286,384 532.286,384 576,384 "/>
        <polyline fill="none" stroke="#000000" stroke-width="1" points="  576,384 613.557,384 613.557,384 615.126,383.76 616.551,383.062 617.702,381.97 618.474,380.583 618.796,379.03 618.638,377.451 618.016,375.991 616.986,374.784 616.986,374.784 615.131,372.612 614.011,369.984 613.728,367.142 614.308,364.345 615.697,361.85 617.769,359.884 620.334,358.627 623.157,358.195 625.981,358.627 628.546,359.884 630.618,361.85 632.007,364.345 632.587,367.142 632.303,369.984 631.183,372.612 629.329,374.784 629.329,374.784 628.298,375.991 627.676,377.451 627.519,379.03 627.841,380.583 628.613,381.97 629.764,383.062 631.189,383.76 632.757,384 632.757,384 672,384 "/>
        <polyline fill="none" stroke="#000000" stroke-width="1" points="  672,384 715.784,384 715.784,384 717.3,383.77 718.679,383.102 719.799,382.054 720.557,380.722 720.887,379.226 720.759,377.698 720.183,376.277 719.213,375.091 719.213,375.091 717.466,372.955 716.43,370.398 716.199,367.648 716.793,364.954 718.158,362.556 720.173,360.671 722.656,359.468 725.384,359.054 728.112,359.468 730.595,360.671 732.61,362.556 733.976,364.954 734.57,367.648 734.338,370.398 733.303,372.955 731.556,375.091 731.556,375.091 730.585,376.277 730.01,377.698 729.881,379.226 730.211,380.722 730.97,382.054 732.089,383.102 733.469,383.77 734.984,384 734.984,384 768,384 "/>
        <polyline fill="none" stroke="#000000" stroke-width="1" points="  0,480 31.0177,480 31.0177,480 32.7364,480.269 34.2906,481.051 35.5313,482.27 36.3397,483.811 36.6385,485.525 36.399,487.248 35.6442,488.815 34.4463,490.077 34.4463,490.077 32.2901,492.348 30.9314,495.169 30.5003,498.27 31.0381,501.355 32.4933,504.128 34.7266,506.323 37.524,507.73 40.6177,508.215 43.7114,507.73 46.5088,506.323 48.7421,504.128 50.1973,501.355 50.7351,498.27 50.3041,495.169 48.9454,492.348 46.7891,490.077 46.7891,490.077 45.5912,488.815 44.8364,487.248 44.5969,485.525 44.8957,483.811 45.7042,482.27 46.9449,481.051 48.499,480.269 50.2177,480 50.2177,480 96,480 "/>
        <polyline fill="none" stroke="#000000" stroke-width="1" points="  96,480 140.206,480 140.206,480 141.914,480.267 143.459,481.043 144.694,482.254 145.5,483.783 145.8,485.486 145.566,487.199 144.821,488.759 143.634,490.017 143.634,490.017 141.499,492.281 140.157,495.089 139.736,498.173 140.277,501.237 141.728,503.991 143.95,506.17 146.731,507.567 149.806,508.047 152.881,507.567 155.662,506.17 157.884,503.991 159.335,501.237 159.875,498.173 159.455,495.089 158.113,492.281 155.977,490.017 155.977,490.017 154.791,488.759 154.045,487.199 153.812,485.486 154.112,483.783 154.918,482.254 156.153,481.043 157.698,480.267 159.406,480 159.406,480 192,480 "/>
        <polyline fill="none" stroke="#000000" stroke-width="1" points="  192,480 236.266,480 236.266,480 238.002,480.273 239.571,481.064 240.822,482.298 241.634,483.856 241.93,485.588 241.681,487.327 240.911,488.907 239.694,490.174 239.694,490.174 237.504,492.456 236.118,495.299 235.67,498.43 236.203,501.548 237.666,504.352 239.917,506.574 242.741,507.998 245.866,508.489 248.991,507.998 251.815,506.574 254.066,504.352 255.529,501.548 256.062,498.43 255.614,495.299 254.228,492.456 252.037,490.174 252.037,490.174 250.82,488.907 250.05,487.327 249.802,485.588 250.098,483.856 250.91,482.298 252.161,481.064 253.73,480.273 255.466,480 255.466,480 288,480 "/>
        <polyline fill="none" stroke="#000000" stroke-width="1" points="  288,480 335.734,480 335.734,480 337.286,479.763 338.697,479.074 339.838,477.996 340.606,476.626 340.93,475.09 340.782,473.527 340.174,472.079 339.162,470.879 339.162,470.879 337.341,468.717 336.247,466.111 335.979,463.298 336.563,460.533 337.946,458.067 340,456.126 342.54,454.886 345.334,454.46 348.128,454.886 350.667,456.126 352.722,458.067 354.104,460.533 354.688,463.298 354.42,466.111 353.326,468.717 351.505,470.879 351.505,470.879 350.493,472.079 349.885,473.527 349.737,475.09 350.061,476.626 350.829,477.996 351.97,479.074 353.381,479.763 354.934,480 354.934,480 384,480 "/>
        <polyline fill="none" stroke="#000000" stroke-width="1" points="  384,480 421.149,480 421.149,480 422.617,480.221 423.955,480.863 425.046,481.87 425.793,483.152 426.13,484.598 426.027,486.079 425.494,487.465 424.577,488.632 424.577,488.632 422.927,490.734 421.968,493.228 421.783,495.894 422.389,498.496 423.734,500.805 425.697,502.618 428.106,503.773 430.749,504.17 433.391,503.773 435.8,502.618 437.764,500.805 439.108,498.496 439.715,495.894 439.53,493.228 438.57,490.734 436.92,488.632 436.92,488.632 436.003,487.465 435.47,486.079 435.368,484.598 435.705,483.152 436.451,481.87 437.542,480.863 438.881,480.221 440.349,480 440.349,480 480,480 "/>
        <polyline fill="none" stroke="#000000" stroke-width="1" points="  480,480 510.879,480 510.879,480 512.348,479.779 513.688,479.136 514.78,478.128 515.527,476.843 515.864,475.396 515.76,473.913 515.226,472.527 514.307,471.358 514.307,471.358 512.654,469.255 511.692,466.759 511.505,464.091 512.111,461.486 513.456,459.173 515.421,457.358 517.833,456.201 520.479,455.804 523.124,456.201 525.536,457.358 527.501,459.173 528.846,461.486 529.452,464.091 529.266,466.759 528.303,469.255 526.65,471.358 526.65,471.358 525.731,472.527 525.197,473.913 525.093,475.396 525.43,476.843 526.177,478.128 527.269,479.136 528.609,479.779 530.079,480 530.079,480 576,480 "/>
        <polyline fill="none" stroke="#000000" stroke-width="1" points="  576,480 606.831,480 606.831,480 608.393,479.761 609.811,479.067 610.958,477.981 611.728,476.602 612.051,475.056 611.898,473.484 611.282,472.03 610.26,470.826 610.26,470.826 608.42,468.658 607.311,466.04 607.035,463.211 607.617,460.428 609.003,457.946 611.067,455.991 613.621,454.741 616.431,454.312 619.242,454.741 621.796,455.991 623.86,457.946 625.246,460.428 625.827,463.211 625.551,466.04 624.443,468.658 622.603,470.826 622.603,470.826 621.581,472.03 620.965,473.484 620.811,475.056 621.134,476.602 621.904,477.981 623.051,479.067 624.47,479.761 626.031,480 626.031,480 672,480 "/>
        <polyline fill="none" stroke="#000000" stroke-width="1" points="  672,480 704.175,480 704.175,480 705.831,479.743 707.332,478.996 708.535,477.83 709.329,476.353 709.637,474.706 709.432,473.042 708.732,471.52 707.604,470.28 707.604,470.28 705.573,468.05 704.313,465.308 703.944,462.314 704.499,459.349 705.927,456.691 708.093,454.592 710.794,453.247 713.775,452.785 716.756,453.247 719.457,454.592 721.623,456.691 723.051,459.349 723.607,462.314 723.237,465.308 721.978,468.05 719.947,470.28 719.947,470.28 718.818,471.52 718.119,473.042 717.913,474.706 718.222,476.353 719.015,477.83 720.219,478.996 721.719,479.743 723.375,480 723.375,480 768,480 "/>
        <polyline fill="none" stroke="#000000" stroke-width="1" points="  0,576 39.3153,576 39.3153,576 41.0054,575.736 42.5349,574.971 43.7586,573.775 44.5601,572.264 44.8634,570.581 44.6396,568.885 43.91,567.338 42.7438,566.086 42.7438,566.086 40.6448,563.834 39.3315,561.049 38.9286,557.997 39.4745,554.966 40.9173,552.246 43.1199,550.095 45.8731,548.717 48.9153,548.242 51.9574,548.717 54.7106,550.095 56.9132,552.246 58.356,554.966 58.9019,557.997 58.499,561.049 57.1857,563.834 55.0867,566.086 55.0867,566.086 53.9205,567.338 53.1909,568.885 52.9671,570.581 53.2704,572.264 54.0719,573.775 55.2956,574.971 56.8251,575.736 58.5153,576 58.5153,576 96,576 "/>
        <polyline fill="none" stroke="#000000" stroke-width="1" points="  96,576 139.088,576 139.088,576 140.581,576.225 141.942,576.882 143.048,577.91 143.801,579.22 144.134,580.693 144.018,582.199 143.462,583.603 142.516,584.781 142.516,584.781 140.814,586.901 139.814,589.429 139.604,592.14 140.204,594.792 141.56,597.149 143.551,599 145.999,600.182 148.688,600.587 151.376,600.182 153.825,599 155.816,597.149 157.172,594.792 157.772,592.14 157.562,589.429 156.562,586.901 154.859,584.781 154.859,584.781 153.914,583.603 153.358,582.199 153.241,580.693 153.574,579.22 154.328,577.91 155.434,576.882 156.794,576.225 158.288,576 158.288,576 192,576 "/>
        <polyline fill="none" stroke="#000000" stroke-width="1" points="  192,576 229.646,576 229.646,576 231.172,576.232 232.559,576.906 233.685,577.961 234.446,579.303 234.774,580.811 234.64,582.348 234.056,583.776 233.075,584.966 233.075,584.966 231.308,587.108 230.257,589.679 230.016,592.445 230.607,595.159 231.977,597.574 234.003,599.474 236.501,600.687 239.246,601.104 241.992,600.687 244.49,599.474 246.515,597.574 247.885,595.159 248.477,592.445 248.236,589.679 247.185,587.108 245.418,584.966 245.418,584.966 244.436,583.776 243.852,582.348 243.718,580.811 244.047,579.303 244.808,577.961 245.933,576.906 247.321,576.232 248.846,576 248.846,576 288,576 "/>
        <polyline fill="none" stroke="#000000" stroke-width="1" points="  288,576 329.275,576 329.275,576 330.779,576.228 332.149,576.89 333.261,577.928 334.017,579.248 334.349,580.733 334.227,582.25 333.661,583.662 332.703,584.844 332.703,584.844 330.979,586.972 329.961,589.515 329.741,592.245 330.337,594.918 331.698,597.295 333.701,599.163 336.167,600.355 338.875,600.764 341.582,600.355 344.048,599.163 346.051,597.295 347.412,594.918 348.009,592.245 347.788,589.515 346.77,586.972 345.046,584.844 345.046,584.844 344.088,583.662 343.522,582.25 343.4,580.733 343.732,579.248 344.488,577.928 345.6,576.89 346.97,576.228 348.475,576 348.475,576 384,576 "/>
        <polyline fill="none" stroke="#000000" stroke-width="1" points="  384,576 414.698,576 414.698,576 416.097,575.793 417.376,575.189 418.425,574.241 419.155,573.029 419.502,571.658 419.436,570.246 418.965,568.913 418.127,567.773 418.127,567.773 416.541,565.571 415.711,562.987 415.719,560.274 416.564,557.695 418.163,555.502 420.36,553.909 422.942,553.072 425.655,553.072 428.237,553.909 430.434,555.502 432.033,557.695 432.878,560.274 432.886,562.987 432.056,565.571 430.47,567.773 430.47,567.773 429.632,568.913 429.16,570.246 429.095,571.658 429.442,573.029 430.172,574.241 431.221,575.189 432.5,575.793 433.898,576 433.898,576 480,576 "/>
        <polyline fill="none" stroke="#000000" stroke-width="1" points="  480,576 515.99,576 515.99,576 517.749,575.723 519.338,574.918 520.603,573.665 521.422,572.083 521.714,570.326 521.452,568.564 520.662,566.968 519.419,565.693 519.419,565.693 517.182,563.396 515.759,560.524 515.287,557.353 515.814,554.19 517.286,551.343 519.563,549.086 522.423,547.638 525.59,547.139 528.757,547.638 531.617,549.086 533.894,551.343 535.367,554.19 535.893,557.353 535.422,560.524 533.999,563.396 531.762,565.693 531.762,565.693 530.519,566.968 529.728,568.564 529.466,570.326 529.759,572.083 530.577,573.665 531.842,574.918 533.431,575.723 535.19,576 535.19,576 576,576 "/>
        <polyline fill="none" stroke="#000000" stroke-width="1" points="  576,576 619.583,576 619.583,576 621.127,576.235 622.532,576.92 623.668,577.992 624.434,579.353 624.76,580.881 624.616,582.437 624.015,583.879 623.012,585.077 623.012,585.077 621.206,587.232 620.124,589.828 619.865,592.628 620.451,595.378 621.829,597.829 623.875,599.758 626.403,600.991 629.183,601.414 631.963,600.991 634.491,599.758 636.537,597.829 637.915,595.378 638.501,592.628 638.242,589.828 637.16,587.232 635.354,585.077 635.354,585.077 634.351,583.879 633.75,582.437 633.606,580.881 633.932,579.353 634.698,577.992 635.834,576.92 637.239,576.235 638.783,576 638.783,576 672,576 "/>
        <polyline fill="none" stroke="#000000" stroke-width="1" points="  672,576 711.467,576 711.467,576 712.873,575.791 714.158,575.184 715.212,574.229 715.943,573.01 716.289,571.631 716.22,570.211 715.741,568.873 714.895,567.73 714.895,567.73 713.293,565.522 712.451,562.927 712.452,560.199 713.296,557.605 714.901,555.398 717.108,553.795 719.703,552.952 722.431,552.952 725.025,553.795 727.233,555.398 728.837,557.605 729.681,560.199 729.682,562.927 728.84,565.522 727.238,567.73 727.238,567.73 726.392,568.873 725.914,570.211 725.845,571.631 726.191,573.01 726.922,574.229 727.975,575.184 729.26,575.791 730.667,576 730.667,576 768,576 "/>
        <polyline fill="none" stroke="#000000" stroke-width="1" points="  0,672 28.952,672 28.952,672 30.4687,671.77 31.8492,671.101 32.9692,670.053 33.7282,668.719 34.058,667.221 33.9289,665.693 33.3525,664.271 32.3806,663.084 32.3806,663.084 30.6312,660.948 29.5936,658.389 29.3612,655.637 29.9548,652.94 31.321,650.541 33.3371,648.654 35.8219,647.449 38.552,647.035 41.2821,647.449 43.7669,648.654 45.783,650.541 47.1492,652.94 47.7428,655.637 47.5104,658.389 46.4728,660.948 44.7234,663.084 44.7234,663.084 43.7515,664.271 43.1751,665.693 43.046,667.221 43.3758,668.719 44.1348,670.053 45.2548,671.101 46.6353,671.77 48.152,672 48.152,672 96,672 "/>
        <polyline fill="none" stroke="#000000" stroke-width="1" points="  96,672 140.101,672 140.101,672 141.827,671.73 143.386,670.944 144.631,669.719 145.441,668.172 145.739,666.451 145.496,664.722 144.735,663.15 143.53,661.886 143.53,661.886 141.361,659.611 139.991,656.781 139.554,653.669 140.09,650.571 141.548,647.786 143.788,645.581 146.596,644.168 149.701,643.681 152.807,644.168 155.614,645.581 157.855,647.786 159.313,650.571 159.849,653.669 159.411,656.781 158.042,659.611 155.873,661.886 155.873,661.886 154.668,663.15 153.907,664.722 153.664,666.451 153.962,668.172 154.772,669.719 156.016,670.944 157.576,671.73 159.301,672 159.301,672 192,672 "/>
        <polyline fill="none" stroke="#000000" stroke-width="1" points="  192,672 228.755,672 228.755,672 230.485,672.271 232.049,673.06 233.297,674.289 234.108,675.841 234.405,677.567 234.159,679.301 233.394,680.876 232.184,682.141 232.184,682.141 230.005,684.419 228.628,687.255 228.186,690.376 228.72,693.483 230.181,696.277 232.426,698.489 235.241,699.908 238.355,700.396 241.469,699.908 244.284,698.489 246.53,696.277 247.99,693.483 248.525,690.376 248.082,687.255 246.706,684.419 244.527,682.141 244.527,682.141 243.316,680.876 242.551,679.301 242.306,677.567 242.603,675.841 243.414,674.289 244.661,673.06 246.225,672.271 247.955,672 247.955,672 288,672 "/>
        <polyline fill="none" stroke="#000000" stroke-width="1" points="  288,672 319.291,672 319.291,672 320.851,672.238 322.269,672.932 323.415,674.017 324.185,675.394 324.508,676.939 324.355,678.51 323.741,679.963 322.72,681.167 322.72,681.167 320.883,683.333 319.776,685.949 319.501,688.777 320.083,691.557 321.469,694.037 323.531,695.99 326.083,697.238 328.891,697.667 331.699,697.238 334.251,695.99 336.314,694.037 337.7,691.557 338.281,688.777 338.007,685.949 336.9,683.333 335.063,681.167 335.063,681.167 334.042,679.963 333.427,678.51 333.275,676.939 333.598,675.394 334.368,674.017 335.514,672.932 336.931,672.238 338.491,672 338.491,672 384,672 "/>
        <polyline fill="none" stroke="#000000" stroke-width="1" points="  384,672 413.098,672 413.098,672 414.603,671.772 415.973,671.11 417.086,670.071 417.842,668.75 418.174,667.264 418.051,665.747 417.485,664.334 416.526,663.152 416.526,663.152 414.8,661.023 413.782,658.48 413.561,655.749 414.157,653.075 415.518,650.697 417.522,648.828 419.988,647.635 422.698,647.225 425.407,647.635 427.873,648.828 429.877,650.697 431.238,653.075 431.835,655.749 431.614,658.48 430.595,661.023 428.869,663.152 428.869,663.152 427.91,664.334 427.344,665.747 427.221,667.264 427.553,668.75 428.309,670.071 429.422,671.11 430.793,671.772 432.298,672 432.298,672 480,672 "/>
        <polyline fill="none" stroke="#000000" stroke-width="1" points="  480,672 517.462,672 517.462,672 518.992,672.233 520.384,672.909 521.512,673.969 522.275,675.316 522.602,676.829 522.466,678.371 521.877,679.803 520.89,680.995 520.89,680.995 519.113,683.141 518.054,685.718 517.808,688.493 518.398,691.216 519.77,693.641 521.801,695.548 524.307,696.767 527.062,697.185 529.816,696.767 532.322,695.548 534.353,693.641 535.725,691.216 536.315,688.493 536.069,685.718 535.01,683.141 533.233,680.995 533.233,680.995 532.246,679.803 531.657,678.371 531.521,676.829 531.849,675.316 532.611,673.969 533.739,672.909 535.131,672.233 536.662,672 536.662,672 576,672 "/>
        <polyline fill="none" stroke="#000000" stroke-width="1" points="  576,672 606.035,672 606.035,672 607.78,672.274 609.355,673.07 610.611,674.311 611.426,675.877 611.721,677.618 611.467,679.365 610.69,680.951 609.464,682.221 609.464,682.221 607.257,684.508 605.858,687.361 605.402,690.506 605.933,693.639 607.399,696.459 609.659,698.693 612.496,700.125 615.635,700.619 618.775,700.125 621.611,698.693 623.872,696.459 625.338,693.639 625.869,690.506 625.413,687.361 624.014,684.508 621.807,682.221 621.807,682.221 620.581,680.951 619.804,679.365 619.55,677.618 619.845,675.877 620.66,674.311 621.915,673.07 623.491,672.274 625.235,672 625.235,672 672,672 "/>
        <polyline fill="none" stroke="#000000" stroke-width="1" points="  672,672 701.045,672 701.045,672 702.48,671.786 703.79,671.163 704.86,670.184 705.599,668.936 705.941,667.526 705.856,666.078 705.353,664.718 704.474,663.564 704.474,663.564 702.893,661.486 701.986,659.038 701.834,656.431 702.45,653.894 703.779,651.647 705.706,649.886 708.063,648.763 710.645,648.378 713.228,648.763 715.585,649.886 717.512,651.647 718.841,653.894 719.457,656.431 719.304,659.038 718.398,661.486 716.817,663.564 716.817,663.564 715.938,664.718 715.435,666.078 715.35,667.526 715.692,668.936 716.431,670.184 717.501,671.163 718.811,671.786 720.245,672 720.245,672 768,672 "/>
        <polyline fill="none" stroke="#000000" stroke-width="1" points="  0,768 40.5458,768 40.5458,768 42.0171,768.221 43.3584,768.865 44.4511,769.875 45.1988,771.161 45.5353,772.61 45.4309,774.094 44.8948,775.482 43.9744,776.651 43.9744,776.651 42.3177,778.755 41.3527,781.254 41.1648,783.925 41.7705,786.534 43.1162,788.849 45.0832,790.667 47.4975,791.826 50.1458,792.224 52.7942,791.826 55.2085,790.667 57.1754,788.849 58.5212,786.534 59.1268,783.925 58.9389,781.254 57.9739,778.755 56.3172,776.651 56.3172,776.651 55.3969,775.482 54.8608,774.094 54.7564,772.61 55.0928,771.161 55.8405,769.875 56.9332,768.865 58.2745,768.221 59.7458,768 59.7458,768 96,768 "/>
        <polyline fill="none" stroke="#000000" stroke-width="1" points="  96,768 134.141,768 134.141,768 135.653,768.229 137.03,768.896 138.147,769.94 138.905,771.269 139.235,772.762 139.109,774.287 138.536,775.705 137.569,776.89 137.569,776.89 135.829,779.024 134.798,781.577 134.57,784.321 135.165,787.009 136.529,789.4 138.54,791.28 141.018,792.481 143.741,792.893 146.463,792.481 148.941,791.28 150.952,789.4 152.316,787.009 152.911,784.321 152.683,781.577 151.652,779.024 149.912,776.89 149.912,776.89 148.945,775.705 148.373,774.287 148.246,772.762 148.576,771.269 149.334,769.94 150.452,768.896 151.828,768.229 153.341,768 153.341,768 192,768 "/>
        <polyline fill="none" stroke="#000000" stroke-width="1" points="  192,768 224.779,768 224.779,768 226.325,767.764 227.73,767.079 228.867,766.007 229.633,764.644 229.959,763.115 229.814,761.559 229.212,760.116 228.208,758.918 228.208,758.918 226.4,756.762 225.317,754.165 225.057,751.363 225.642,748.611 227.021,746.158 229.068,744.228 231.598,742.994 234.379,742.57 237.161,742.994 239.69,744.228 241.737,746.158 243.116,748.611 243.702,751.363 243.441,754.165 242.358,756.762 240.551,758.918 240.551,758.918 239.546,760.116 238.945,761.559 238.8,763.115 239.125,764.644 239.892,766.007 241.029,767.079 242.434,767.764 243.979,768 243.979,768 288,768 "/>
        <polyline fill="none" stroke="#000000" stroke-width="1" points="  288,768 335.827,768 335.827,768 337.456,767.748 338.933,767.016 340.121,765.873 340.908,764.424 341.22,762.805 341.03,761.167 340.354,759.664 339.255,758.434 339.255,758.434 337.278,756.221 336.061,753.514 335.718,750.567 336.281,747.653 337.697,745.045 339.835,742.986 342.494,741.669 345.427,741.215 348.36,741.669 351.019,742.986 353.156,745.045 354.572,747.653 355.135,750.567 354.792,753.514 353.575,756.221 351.598,758.434 351.598,758.434 350.5,759.664 349.824,761.167 349.633,762.805 349.946,764.424 350.733,765.873 351.92,767.016 353.397,767.748 355.027,768 355.027,768 384,768 "/>
        <polyline fill="none" stroke="#000000" stroke-width="1" points="  384,768 417.084,768 417.084,768 418.672,768.244 420.115,768.953 421.278,770.062 422.054,771.469 422.373,773.044 422.205,774.642 421.565,776.117 420.513,777.331 420.513,777.331 418.618,779.517 417.466,782.17 417.163,785.047 417.737,787.883 419.135,790.415 421.229,792.411 423.825,793.688 426.684,794.127 429.543,793.688 432.139,792.411 434.233,790.415 435.631,787.883 436.205,785.047 435.902,782.17 434.75,779.517 432.855,777.331 432.855,777.331 431.803,776.117 431.163,774.642 430.994,773.044 431.313,771.469 432.09,770.062 433.253,768.953 434.695,768.244 436.284,768 436.284,768 480,768 "/>
        <polyline fill="none" stroke="#000000" stroke-width="1" points="  480,768 512.009,768 512.009,768 513.495,767.776 514.85,767.123 515.952,766.101 516.703,764.798 517.038,763.332 516.925,761.833 516.375,760.434 515.437,759.259 515.437,759.259 513.749,757.143 512.759,754.624 512.556,751.926 513.158,749.287 514.511,746.943 516.494,745.102 518.932,743.928 521.609,743.524 524.285,743.928 526.723,745.102 528.707,746.943 530.059,749.287 530.661,751.926 530.458,754.624 529.468,757.143 527.78,759.259 527.78,759.259 526.842,760.434 526.292,761.833 526.179,763.332 526.514,764.798 527.265,766.101 528.367,767.123 529.722,767.776 531.209,768 531.209,768 576,768 "/>
        <polyline fill="none" stroke="#000000" stroke-width="1" points="  576,768 605.349,768 605.349,768 606.982,767.748 608.462,767.014 609.652,765.867 610.439,764.415 610.751,762.793 610.559,761.152 609.88,759.645 608.778,758.415 608.778,758.415 606.794,756.199 605.572,753.488 605.225,750.535 605.787,747.615 607.205,745.001 609.346,742.937 612.01,741.616 614.949,741.161 617.888,741.616 620.552,742.937 622.693,745.001 624.111,747.615 624.673,750.535 624.327,753.488 623.104,756.199 621.121,758.415 621.121,758.415 620.018,759.645 619.339,761.152 619.147,762.793 619.459,764.415 620.247,765.867 621.436,767.014 622.916,767.748 624.549,768 624.549,768 672,768 "/>
        <polyline fill="none" stroke="#000000" stroke-width="1" points="  672,768 709.383,768 709.383,768 710.825,768.215 712.14,768.843 713.215,769.827 713.955,771.083 714.296,772.5 714.208,773.955 713.698,775.321 712.812,776.478 712.812,776.478 711.216,778.56 710.298,781.018 710.139,783.637 710.753,786.188 712.085,788.448 714.02,790.22 716.388,791.349 718.983,791.737 721.578,791.349 723.946,790.22 725.881,788.448 727.213,786.188 727.827,783.637 727.668,781.018 726.75,778.56 725.154,776.478 725.154,776.478 724.268,775.321 723.758,773.955 723.67,772.5 724.011,771.083 724.751,769.827 725.826,768.843 727.141,768.215 728.583,768 728.583,768 768,768 "/>
        <polyline fill="none" stroke="#000000" stroke-width="1" points="  0,864 42.5085,864 42.5085,864 43.9844,863.778 45.3297,863.131 46.4253,862.118 47.1741,860.827 47.5099,859.372 47.4029,857.884 46.8627,856.492 45.9371,855.321 45.9371,855.321 44.2708,853.214 43.2984,850.71 43.1059,848.03 43.7104,845.412 45.0583,843.088 47.0302,841.263 49.4518,840.1 52.1085,839.7 54.7652,840.1 57.1867,841.263 59.1587,843.088 60.5066,845.412 61.111,848.03 60.9185,850.71 59.9461,853.214 58.2799,855.321 58.2799,855.321 57.3542,856.492 56.814,857.884 56.7071,859.372 57.0429,860.827 57.7917,862.118 58.8872,863.131 60.2325,863.778 61.7085,864 61.7085,864 96,864 "/>
        <polyline fill="none" stroke="#000000" stroke-width="1" points="  96,864 128.469,864 128.469,864 130.238,864.279 131.835,865.089 133.106,866.351 133.927,867.943 134.217,869.71 133.95,871.48 133.151,873.083 131.898,874.362 131.898,874.362 129.642,876.664 128.203,879.549 127.723,882.736 128.246,885.917 129.723,888.782 132.01,891.054 134.885,892.511 138.069,893.014 141.253,892.511 144.128,891.054 146.415,888.782 147.892,885.917 148.416,882.736 147.935,879.549 146.497,876.664 144.241,874.362 144.241,874.362 142.987,873.083 142.188,871.48 141.921,869.71 142.212,867.943 143.033,866.351 144.303,865.089 145.9,864.279 147.669,864 147.669,864 192,864 "/>
        <polyline fill="none" stroke="#000000" stroke-width="1" points="  192,864 232.194,864 232.194,864 233.894,863.735 235.431,862.964 236.66,861.761 237.464,860.24 237.766,858.547 237.537,856.842 236.799,855.289 235.623,854.034 235.623,854.034 233.506,851.776 232.178,848.979 231.766,845.911 232.309,842.863 233.756,840.126 235.968,837.961 238.736,836.573 241.794,836.096 244.853,836.573 247.621,837.961 249.833,840.126 251.28,842.863 251.823,845.911 251.411,848.979 250.083,851.776 247.966,854.034 247.966,854.034 246.79,855.289 246.052,856.842 245.823,858.547 246.125,860.24 246.929,861.761 248.158,862.964 249.695,863.735 251.394,864 251.394,864 288,864 "/>
        <polyline fill="none" stroke="#000000" stroke-width="1" points="  288,864 318.356,864 318.356,864 319.917,863.762 321.334,863.068 322.481,861.983 323.25,860.605 323.574,859.06 323.421,857.489 322.806,856.035 321.785,854.832 321.785,854.832 319.947,852.665 318.84,850.048 318.565,847.221 319.147,844.44 320.532,841.959 322.595,840.006 325.148,838.758 327.956,838.329 330.765,838.758 333.317,840.006 335.38,841.959 336.766,844.44 337.348,847.221 337.073,850.048 335.966,852.665 334.128,854.832 334.128,854.832 333.107,856.035 332.492,857.489 332.339,859.06 332.662,860.605 333.432,861.983 334.578,863.068 335.996,863.762 337.556,864 337.556,864 384,864 "/>
        <polyline fill="none" stroke="#000000" stroke-width="1" points="  384,864 420.624,864 420.624,864 422.171,863.764 423.578,863.078 424.716,862.004 425.483,860.639 425.808,859.108 425.662,857.55 425.059,856.106 424.053,854.907 424.053,854.907 422.241,852.749 421.155,850.15 420.893,847.345 421.478,844.589 422.858,842.133 424.907,840.2 427.439,838.965 430.224,838.54 433.009,838.965 435.541,840.2 437.59,842.133 438.97,844.589 439.555,847.345 439.293,850.15 438.207,852.749 436.395,854.907 436.395,854.907 435.389,856.106 434.786,857.55 434.64,859.108 434.965,860.639 435.732,862.004 436.87,863.078 438.277,863.764 439.824,864 439.824,864 480,864 "/>
        <polyline fill="none" stroke="#000000" stroke-width="1" points="  480,864 509.697,864 509.697,864 511.453,863.724 513.039,862.921 514.302,861.669 515.12,860.091 515.413,858.337 515.153,856.578 514.365,854.984 513.125,853.71 513.125,853.71 510.894,851.415 509.476,848.546 509.008,845.38 509.535,842.224 511.006,839.382 513.28,837.129 516.135,835.684 519.297,835.187 522.458,835.684 525.314,837.129 527.587,839.382 529.059,842.224 529.586,845.38 529.117,848.546 527.699,851.415 525.468,853.71 525.468,853.71 524.229,854.984 523.441,856.578 523.181,858.337 523.473,860.091 524.291,861.669 525.554,862.921 527.14,863.724 528.897,864 528.897,864 576,864 "/>
        <polyline fill="none" stroke="#000000" stroke-width="1" points="  576,864 608.242,864 608.242,864 609.741,863.774 611.106,863.114 612.215,862.081 612.97,860.767 613.302,859.288 613.183,857.777 612.622,856.368 611.671,855.189 611.671,855.189 609.958,853.065 608.949,850.53 608.734,847.81 609.333,845.148 610.691,842.782 612.687,840.922 615.144,839.736 617.842,839.328 620.54,839.736 622.997,840.922 624.993,842.782 626.352,845.148 626.95,847.81 626.735,850.53 625.726,853.065 624.014,855.189 624.014,855.189 623.062,856.368 622.502,857.777 622.382,859.288 622.715,860.767 623.469,862.081 624.578,863.114 625.943,863.774 627.442,864 627.442,864 672,864 "/>
        <polyline fill="none" stroke="#000000" stroke-width="1" points="  672,864 707.415,864 707.415,864 709.136,863.73 710.692,862.948 711.934,861.726 712.742,860.184 713.041,858.468 712.8,856.743 712.044,855.175 710.844,853.912 710.844,853.912 708.684,851.64 707.322,848.817 706.889,845.712 707.426,842.623 708.882,839.847 711.118,837.649 713.918,836.24 717.015,835.754 720.112,836.24 722.913,837.649 725.148,839.847 726.604,842.623 727.141,845.712 726.708,848.817 725.347,851.64 723.187,853.912 723.187,853.912 721.987,855.175 721.23,856.743 720.989,858.468 721.288,860.184 722.097,861.726 723.339,862.948 724.895,863.73 726.615,864 726.615,864 768,864 "/>
        <polyline fill="none" stroke="#000000" stroke-width="1" points="  96,0 96,35.352 96,35.352 95.759,36.9256 95.0582,38.355 93.9617,39.5091 92.5701,40.2822 91.0109,40.6034 89.4271,40.4433 87.9637,39.8165 86.755,38.7806 86.755,38.7806 84.5792,36.9159 81.9452,35.7877 79.0942,35.4995 76.2877,36.0777 73.7828,37.4693 71.8091,39.5467 70.5476,42.1196 70.1139,44.952 70.5476,47.7845 71.8091,50.3573 73.7828,52.4347 76.2877,53.8263 79.0942,54.4045 81.9452,54.1163 84.5792,52.9882 86.755,51.1234 86.755,51.1234 87.9637,50.0875 89.4271,49.4607 91.0109,49.3006 92.5701,49.6218 93.9617,50.3949 95.0582,51.5491 95.759,52.9784 96,54.552 96,54.552 96,96 "/>
        <polyline fill="none" stroke="#000000" stroke-width="1" points="  192,0 192,40.3748 192,40.3748 192.213,41.8019 192.832,43.1052 193.804,44.1713 195.045,44.9078 196.446,45.2508 197.887,45.1703 199.242,44.6735 200.393,43.8034 200.393,43.8034 202.465,42.2372 204.903,41.3429 207.496,41.1981 210.019,41.8153 212.252,43.141 214.002,45.0601 215.117,47.4059 215.5,49.9748 215.117,52.5437 214.002,54.8895 212.252,56.8086 210.019,58.1343 207.496,58.7515 204.903,58.6067 202.465,57.7124 200.393,56.1462 200.393,56.1462 199.242,55.2761 197.887,54.7793 196.446,54.6988 195.045,55.0417 193.804,55.7783 192.832,56.8444 192.213,58.1476 192,59.5748 192,59.5748 192,96 "/>
        <polyline fill="none" stroke="#000000" stroke-width="1" points="  288,0 288,33.78 288,33.78 287.783,35.2303 287.151,36.5534 286.159,37.6335 284.894,38.3759 283.468,38.7155 282.004,38.6224 280.632,38.105 279.472,37.2086 279.472,37.2086 277.383,35.5949 274.913,34.6636 272.279,34.4962 269.711,35.1074 267.434,36.4436 265.649,38.3878 264.511,40.7695 264.12,43.38 264.511,45.9905 265.649,48.3722 267.434,50.3164 269.711,51.6526 272.279,52.2638 274.913,52.0964 277.383,51.1651 279.472,49.5514 279.472,49.5514 280.632,48.6549 282.004,48.1375 283.468,48.0445 284.894,48.3841 286.159,49.1264 287.151,50.2065 287.783,51.5297 288,52.98 288,52.98 288,96 "/>
        <polyline fill="none" stroke="#000000" stroke-width="1" points="  384,0 384,47.9666 384,47.9666 383.756,49.5575 383.045,51.0019 381.934,52.1664 380.524,52.9438 378.947,53.2623 377.346,53.0927 375.87,52.4506 374.655,51.3951 374.655,51.3951 372.467,49.4953 369.81,48.3395 366.929,48.0342 364.089,48.6076 361.552,50.0069 359.552,52.1031 358.273,54.7028 357.833,57.5666 358.273,60.4303 359.552,63.0301 361.552,65.1262 364.089,66.5255 366.929,67.0989 369.81,66.7937 372.467,65.6379 374.655,63.738 374.655,63.738 375.87,62.6825 377.346,62.0404 378.947,61.8708 380.524,62.1894 381.934,62.9668 383.045,64.1313 383.756,65.5756 384,67.1666 384,67.1666 384,96 "/>
        <polyline fill="none" stroke="#000000" stroke-width="1" points="  480,0 480,37.6379 480,37.6379 480.212,39.0617 480.829,40.362 481.799,41.4261 483.036,42.1618 484.434,42.5052 485.871,42.4266 487.223,41.9327 488.373,41.0665 488.373,41.0665 490.442,39.5072 492.876,38.6183 495.463,38.4768 497.98,39.0949 500.207,40.4191 501.952,42.3345 503.063,44.6751 503.444,47.2379 503.063,49.8007 501.952,52.1413 500.207,54.0567 497.98,55.3809 495.463,55.999 492.876,55.8575 490.442,54.9686 488.373,53.4093 488.373,53.4093 487.223,52.5431 485.871,52.0493 484.434,51.9706 483.036,52.314 481.799,53.0497 480.829,54.1138 480.212,55.4141 480,56.8379 480,56.8379 480,96 "/>
        <polyline fill="none" stroke="#000000" stroke-width="1" points="  576,0 576,28.93 576,28.93 576.205,30.3186 576.803,31.5887 577.743,32.6316 578.944,33.3583 580.303,33.7067 581.706,33.6471 583.031,33.1845 584.166,32.3585 584.166,32.3585 586.36,30.7948 588.928,29.9821 591.622,29.9993 594.179,30.8449 596.353,32.4366 597.93,34.62 598.759,37.1831 598.759,39.8769 597.93,42.4399 596.353,44.6233 594.179,46.2151 591.622,47.0606 588.928,47.0779 586.36,46.2652 584.166,44.7014 584.166,44.7014 583.031,43.8754 581.706,43.4128 580.303,43.3532 578.944,43.7017 577.743,44.4284 576.803,45.4713 576.205,46.7413 576,48.13 576,48.13 576,96 "/>
        <polyline fill="none" stroke="#000000" stroke-width="1" points="  672,0 672,30.7209 672,30.7209 672.261,32.3971 673.019,33.9147 674.202,35.1301 675.699,35.9283 677.368,36.2338 679.051,36.0176 680.588,35.3002 681.834,34.1495 681.834,34.1495 684.078,32.0783 686.845,30.787 689.874,30.3978 692.877,30.9476 695.572,32.3844 697.702,34.5721 699.066,37.3038 699.536,40.3209 699.066,43.3381 697.702,46.0698 695.572,48.2575 692.877,49.6942 689.874,50.244 686.845,49.8549 684.078,48.5636 681.834,46.4924 681.834,46.4924 680.588,45.3417 679.051,44.6243 677.368,44.4081 675.699,44.7135 674.202,45.5117 673.019,46.7271 672.261,48.2447 672,49.9209 672,49.9209 672,96 "/>
        <polyline fill="none" stroke="#000000" stroke-width="1" points="  96,96 96,127.572 96,127.572 95.7583,129.15 95.0556,130.582 93.9561,131.738 92.5609,132.512 90.998,132.833 89.4107,132.671 87.9448,132.041 86.7348,131.001 86.7348,131.001 84.5567,129.129 81.918,127.996 79.061,127.704 76.2477,128.281 73.7363,129.674 71.7573,131.755 70.4923,134.334 70.0573,137.172 70.4923,140.011 71.7573,142.589 73.7363,144.671 76.2477,146.064 79.061,146.641 81.918,146.349 84.5567,145.216 86.7348,143.344 86.7348,143.344 87.9448,142.304 89.4107,141.674 90.998,141.512 92.5609,141.833 93.9561,142.607 95.0556,143.763 95.7583,145.195 96,146.772 96,146.772 96,192 "/>
        <polyline fill="none" stroke="#000000" stroke-width="1" points="  192,96 192,136.824 192,136.824 191.743,138.478 190.998,139.976 189.833,141.178 188.359,141.971 186.715,142.28 185.053,142.076 183.532,141.378 182.294,140.252 182.294,140.252 180.065,138.226 177.326,136.97 174.336,136.603 171.375,137.159 168.722,138.586 166.626,140.75 165.284,143.447 164.822,146.424 165.284,149.401 166.626,152.098 168.722,154.262 171.375,155.689 174.336,156.245 177.326,155.877 180.065,154.622 182.294,152.595 182.294,152.595 183.532,151.47 185.053,150.772 186.715,150.568 188.359,150.877 189.833,151.67 190.998,152.872 191.743,154.37 192,156.024 192,156.024 192,192 "/>
        <polyline fill="none" stroke="#000000" stroke-width="1" points="  288,96 288,133.917 288,133.917 288.216,135.362 288.846,136.681 289.833,137.758 291.093,138.499 292.514,138.84 293.973,138.749 295.341,138.236 296.5,137.345 296.5,137.345 298.585,135.742 301.048,134.818 303.674,134.656 306.232,135.268 308.499,136.602 310.277,138.541 311.41,140.915 311.799,143.517 311.41,146.118 310.277,148.493 308.499,150.431 306.232,151.765 303.674,152.378 301.048,152.215 298.585,151.292 296.5,149.688 296.5,149.688 295.341,148.797 293.973,148.284 292.514,148.194 291.093,148.534 289.833,149.275 288.846,150.352 288.216,151.671 288,153.117 288,153.117 288,192 "/>
        <polyline fill="none" stroke="#000000" stroke-width="1" points="  384,96 384,139.076 384,139.076 384.277,140.834 385.081,142.422 386.334,143.687 387.914,144.504 389.67,144.797 391.43,144.536 393.026,143.746 394.301,142.505 394.301,142.505 396.596,140.27 399.468,138.849 402.637,138.379 405.797,138.905 408.642,140.378 410.897,142.653 412.344,145.512 412.842,148.676 412.344,151.841 410.897,154.699 408.642,156.975 405.797,158.447 402.637,158.974 399.468,158.504 396.596,157.082 394.301,154.848 394.301,154.848 393.026,153.606 391.43,152.817 389.67,152.555 387.914,152.848 386.334,153.666 385.081,154.93 384.277,156.518 384,158.276 384,158.276 384,192 "/>
        <polyline fill="none" stroke="#000000" stroke-width="1" points="  480,96 480,142.485 480,142.485 479.755,144.079 479.043,145.525 477.93,146.691 476.518,147.469 474.938,147.787 473.334,147.616 471.857,146.972 470.64,145.914 470.64,145.914 468.451,144.009 465.791,142.849 462.906,142.541 460.061,143.114 457.519,144.514 455.516,146.613 454.234,149.217 453.793,152.085 454.234,154.953 455.516,157.557 457.519,159.656 460.061,161.056 462.906,161.629 465.791,161.321 468.451,160.161 470.64,158.256 470.64,158.256 471.857,157.198 473.334,156.554 474.938,156.383 476.518,156.701 477.93,157.479 479.043,158.645 479.755,160.092 480,161.685 480,161.685 480,192 "/>
        <polyline fill="none" stroke="#000000" stroke-width="1" points="  576,96 576,139.511 576,139.511 575.761,141.074 575.066,142.494 573.979,143.642 572.598,144.412 571.05,144.735 569.477,144.581 568.021,143.963 566.816,142.939 566.816,142.939 564.648,141.096 562.028,139.985 559.195,139.707 556.409,140.288 553.924,141.675 551.967,143.741 550.716,146.297 550.286,149.111 550.716,151.924 551.967,154.481 553.924,156.547 556.409,157.933 559.195,158.514 562.028,158.237 564.648,157.125 566.816,155.282 566.816,155.282 568.021,154.258 569.477,153.641 571.05,153.487 572.598,153.809 573.979,154.58 575.066,155.728 575.761,157.148 576,158.711 576,158.711 576,192 "/>
        <polyline fill="none" stroke="#000000" stroke-width="1" points="  672,96 672,134.297 672,134.297 671.759,135.872 671.057,137.303 669.959,138.458 668.566,139.231 667.006,139.552 665.42,139.392 663.956,138.764 662.747,137.726 662.747,137.726 660.57,135.858 657.934,134.728 655.081,134.438 652.271,135.016 649.764,136.408 647.788,138.487 646.525,141.062 646.091,143.897 646.525,146.732 647.788,149.308 649.764,151.387 652.271,152.779 655.081,153.357 657.934,153.067 660.57,151.936 662.747,150.069 662.747,150.069 663.956,149.031 665.42,148.403 667.006,148.242 668.566,148.563 669.959,149.337 671.057,150.492 671.759,151.922 672,153.497 672,153.497 672,192 "/>
        <polyline fill="none" stroke="#000000" stroke-width="1" points="  96,192 96,227.773 96,227.773 96.2663,229.477 97.0399,231.019 98.2469,232.251 99.7723,233.056 101.471,233.357 103.18,233.125 104.737,232.383 105.993,231.202 105.993,231.202 108.255,229.075 111.057,227.74 114.134,227.323 117.19,227.865 119.936,229.314 122.109,231.531 123.501,234.306 123.981,237.373 123.501,240.441 122.109,243.215 119.936,245.433 117.19,246.882 114.134,247.424 111.057,247.007 108.255,245.672 105.993,243.545 105.993,243.545 104.737,242.363 103.18,241.621 101.471,241.39 99.7723,241.691 98.2469,242.496 97.0399,243.728 96.2663,245.269 96,246.973 96,246.973 96,288 "/>
        <polyline fill="none" stroke="#000000" stroke-width="1" points="  192,192 192,223.86 192,223.86 191.792,225.264 191.186,226.546 190.234,227.598 189.018,228.329 187.642,228.675 186.225,228.607 184.888,228.132 183.747,227.289 183.747,227.289 181.541,225.693 178.95,224.855 176.227,224.859 173.639,225.703 171.438,227.306 169.838,229.509 168.998,232.099 168.998,234.821 169.838,237.411 171.438,239.615 173.639,241.217 176.227,242.061 178.95,242.065 181.541,241.228 183.747,239.632 183.747,239.632 184.888,238.789 186.225,238.313 187.642,238.245 189.018,238.592 190.234,239.322 191.186,240.374 191.792,241.657 192,243.06 192,243.06 192,288 "/>
        <polyline fill="none" stroke="#000000" stroke-width="1" points="  288,192 288,223.204 288,223.204 287.738,224.888 286.975,226.412 285.785,227.632 284.28,228.432 282.604,228.736 280.914,228.516 279.371,227.792 278.122,226.632 278.122,226.632 275.873,224.546 273.096,223.242 270.054,222.845 267.036,223.393 264.327,224.833 262.185,227.029 260.813,229.773 260.341,232.804 260.813,235.835 262.185,238.579 264.327,240.775 267.036,242.215 270.054,242.762 273.096,242.366 275.873,241.062 278.122,238.975 278.122,238.975 279.371,237.816 280.914,237.092 282.604,236.871 284.28,237.176 285.785,237.976 286.975,239.196 287.738,240.72 288,242.404 288,242.404 288,288 "/>
        <polyline fill="none" stroke="#000000" stroke-width="1" points="  384,192 384,236.072 384,236.072 384.247,237.677 384.966,239.134 386.089,240.307 387.514,241.088 389.107,241.405 390.722,241.227 392.208,240.572 393.429,239.5 393.429,239.5 395.626,237.571 398.302,236.392 401.209,236.072 404.077,236.642 406.641,238.048 408.663,240.159 409.957,242.782 410.402,245.672 409.957,248.562 408.663,251.184 406.641,253.296 404.077,254.702 401.209,255.271 398.302,254.951 395.626,253.772 393.429,251.843 393.429,251.843 392.208,250.771 390.722,250.116 389.107,249.939 387.514,250.255 386.089,251.036 384.966,252.209 384.247,253.666 384,255.272 384,255.272 384,288 "/>
        <polyline fill="none" stroke="#000000" stroke-width="1" points="  480,192 480,232.077 480,232.077 479.725,233.827 478.926,235.407 477.68,236.666 476.108,237.482 474.362,237.776 472.609,237.52 471.02,236.738 469.748,235.506 469.748,235.506 467.458,233.288 464.597,231.88 461.443,231.419 458.299,231.948 455.469,233.416 453.227,235.683 451.789,238.528 451.294,241.677 451.789,244.826 453.227,247.672 455.469,249.938 458.299,251.406 461.443,251.935 464.597,251.474 467.458,250.066 469.748,247.848 469.748,247.848 471.02,246.616 472.609,245.834 474.362,245.578 476.108,245.872 477.68,246.688 478.926,247.947 479.725,249.527 480,251.277 480,251.277 480,288 "/>
        <polyline fill="none" stroke="#000000" stroke-width="1" points="  576,192 576,221.491 576,221.491 576.264,223.184 577.032,224.717 578.231,225.943 579.745,226.745 581.433,227.048 583.132,226.822 584.682,226.089 585.935,224.919 585.935,224.919 588.189,222.813 590.979,221.494 594.038,221.087 597.075,221.632 599.802,223.076 601.959,225.283 603.341,228.042 603.817,231.091 603.341,234.139 601.959,236.898 599.802,239.105 597.075,240.549 594.038,241.094 590.979,240.688 588.189,239.368 585.935,237.262 585.935,237.262 584.682,236.092 583.132,235.359 581.433,235.133 579.745,235.436 578.231,236.238 577.032,237.464 576.264,238.997 576,240.691 576,240.691 576,288 "/>
        <polyline fill="none" stroke="#000000" stroke-width="1" points="  672,192 672,235.007 672,235.007 672.246,236.605 672.96,238.055 674.077,239.223 675.493,240.002 677.078,240.32 678.685,240.147 680.166,239.499 681.384,238.436 681.384,238.436 683.576,236.522 686.241,235.356 689.134,235.044 691.987,235.616 694.537,237.018 696.547,239.121 697.833,241.731 698.275,244.607 697.833,247.483 696.547,250.093 694.537,252.196 691.987,253.599 689.134,254.17 686.241,253.858 683.576,252.692 681.384,250.779 681.384,250.779 680.166,249.716 678.685,249.068 677.078,248.894 675.493,249.212 674.077,249.991 672.96,251.159 672.246,252.609 672,254.207 672,254.207 672,288 "/>
        <polyline fill="none" stroke="#000000" stroke-width="1" points="  96,288 96,333.202 96,333.202 95.746,334.842 95.008,336.329 93.8549,337.523 92.3947,338.312 90.7642,338.623 89.1159,338.427 87.6043,337.741 86.3708,336.63 86.3708,336.63 84.1504,334.631 81.4295,333.396 78.4626,333.042 75.5276,333.602 72.8993,335.023 70.8238,337.173 69.4952,339.849 69.0381,342.802 69.4952,345.754 70.8238,348.43 72.8993,350.58 75.5276,352.001 78.4626,352.561 81.4295,352.207 84.1504,350.972 86.3708,348.973 86.3708,348.973 87.6043,347.862 89.1159,347.176 90.7642,346.98 92.3947,347.291 93.8549,348.08 95.008,349.274 95.746,350.761 96,352.402 96,352.402 96,384 "/>
        <polyline fill="none" stroke="#000000" stroke-width="1" points="  192,288 192,335.269 192,335.269 191.772,336.777 191.107,338.15 190.067,339.265 188.742,340.022 187.253,340.353 185.733,340.228 184.318,339.66 183.135,338.698 183.135,338.698 181.004,336.966 178.457,335.942 175.721,335.718 173.041,336.314 170.657,337.677 168.783,339.683 167.588,342.155 167.177,344.869 167.588,347.584 168.783,350.055 170.657,352.062 173.041,353.424 175.721,354.02 178.457,353.796 181.004,352.772 183.135,351.041 183.135,351.041 184.318,350.078 185.733,349.51 187.253,349.385 188.742,349.716 190.067,350.473 191.107,351.588 191.772,352.961 192,354.469 192,354.469 192,384 "/>
        <polyline fill="none" stroke="#000000" stroke-width="1" points="  288,288 288,319.285 288,319.285 287.793,320.682 287.191,321.959 286.244,323.007 285.035,323.736 283.666,324.083 282.255,324.019 280.923,323.549 279.785,322.714 279.785,322.714 277.585,321.132 275.004,320.306 272.294,320.315 269.719,321.16 267.53,322.758 265.94,324.952 265.104,327.53 265.104,330.24 265.94,332.818 267.53,335.013 269.719,336.611 272.294,337.455 275.004,337.465 277.585,336.639 279.785,335.057 279.785,335.057 280.923,334.221 282.255,333.751 283.666,333.687 285.035,334.034 286.244,334.763 287.191,335.811 287.793,337.088 288,338.485 288,338.485 288,384 "/>
        <polyline fill="none" stroke="#000000" stroke-width="1" points="  384,288 384,334.022 384,334.022 384.261,335.7 385.02,337.219 386.205,338.436 387.704,339.234 389.374,339.539 391.059,339.322 392.597,338.603 393.844,337.451 393.844,337.451 396.089,335.376 398.858,334.082 401.89,333.691 404.897,334.24 407.595,335.678 409.727,337.867 411.094,340.602 411.564,343.622 411.094,346.642 409.727,349.377 407.595,351.566 404.897,353.004 401.89,353.553 398.858,353.162 396.089,351.868 393.844,349.794 393.844,349.794 392.597,348.641 391.059,347.922 389.374,347.705 387.704,348.01 386.205,348.809 385.02,350.025 384.261,351.544 384,353.222 384,353.222 384,384 "/>
        <polyline fill="none" stroke="#000000" stroke-width="1" points="  480,288 480,321.716 480,321.716 480.264,323.408 481.031,324.94 482.228,326.165 483.742,326.967 485.428,327.27 487.126,327.045 488.675,326.313 489.927,325.144 489.927,325.144 492.181,323.041 494.969,321.724 498.025,321.319 501.06,321.864 503.784,323.308 505.939,325.513 507.32,328.27 507.795,331.316 507.32,334.362 505.939,337.119 503.784,339.324 501.06,340.768 498.025,341.313 494.969,340.908 492.181,339.591 489.927,337.487 489.927,337.487 488.675,336.319 487.126,335.587 485.428,335.362 483.742,335.665 482.228,336.467 481.031,337.692 480.264,339.223 480,340.916 480,340.916 480,384 "/>
        <polyline fill="none" stroke="#000000" stroke-width="1" points="  576,288 576,318.097 576,318.097 575.737,319.785 574.972,321.312 573.779,322.534 572.27,323.335 570.589,323.639 568.896,323.417 567.35,322.689 566.099,321.525 566.099,321.525 563.848,319.431 561.066,318.121 558.018,317.721 554.992,318.267 552.276,319.709 550.128,321.909 548.752,324.659 548.278,327.697 548.752,330.735 550.128,333.484 552.276,335.685 554.992,337.126 558.018,337.673 561.066,337.272 563.848,335.963 566.099,333.868 566.099,333.868 567.35,332.705 568.896,331.977 570.589,331.754 572.27,332.058 573.779,332.859 574.972,334.081 575.737,335.609 576,337.297 576,337.297 576,384 "/>
        <polyline fill="none" stroke="#000000" stroke-width="1" points="  672,288 672,331.508 672,331.508 672.269,333.225 673.049,334.777 674.267,336.016 675.805,336.824 677.516,337.123 679.237,336.885 680.803,336.132 682.064,334.937 682.064,334.937 684.333,332.785 687.152,331.43 690.249,331.001 693.33,331.54 696.098,332.994 698.29,335.225 699.695,338.019 700.179,341.108 699.695,344.198 698.29,346.992 696.098,349.223 693.33,350.677 690.249,351.215 687.152,350.787 684.333,349.431 682.064,347.28 682.064,347.28 680.803,346.084 679.237,345.332 677.516,345.093 675.805,345.392 674.267,346.2 673.049,347.44 672.269,348.992 672,350.708 672,350.708 672,384 "/>
        <polyline fill="none" stroke="#000000" stroke-width="1" points="  96,384 96,414.579 96,414.579 95.7627,416.133 95.0726,417.546 93.9924,418.688 92.6205,419.457 91.0818,419.781 89.5165,419.631 88.0672,419.021 86.8657,418.007 86.8657,418.007 84.7031,416.181 82.0942,415.084 79.2767,414.814 76.5071,415.398 74.0377,416.781 72.0933,418.837 70.851,421.381 70.4239,424.179 70.851,426.976 72.0933,429.52 74.0377,431.576 76.5071,432.959 79.2767,433.543 82.0942,433.273 84.7031,432.176 86.8657,430.35 86.8657,430.35 88.0672,429.336 89.5165,428.726 91.0818,428.576 92.6205,428.9 93.9924,429.669 95.0726,430.811 95.7627,432.224 96,433.779 96,433.779 96,480 "/>
        <polyline fill="none" stroke="#000000" stroke-width="1" points="  192,384 192,425.048 192,425.048 192.213,426.478 192.834,427.783 193.809,428.851 195.052,429.588 196.457,429.931 197.9,429.849 199.257,429.35 200.409,428.476 200.409,428.476 202.483,426.905 204.925,426.006 207.523,425.858 210.051,426.475 212.29,427.802 214.044,429.724 215.161,432.074 215.545,434.648 215.161,437.222 214.044,439.572 212.29,441.494 210.051,442.821 207.523,443.437 204.925,443.29 202.483,442.391 200.409,440.819 200.409,440.819 199.257,439.946 197.9,439.447 196.457,439.365 195.052,439.707 193.809,440.445 192.834,441.512 192.213,442.818 192,444.248 192,444.248 192,480 "/>
        <polyline fill="none" stroke="#000000" stroke-width="1" points="  288,384 288,419.387 288,419.387 287.772,420.893 287.109,422.264 286.07,423.377 284.749,424.134 283.262,424.465 281.744,424.342 280.331,423.775 279.148,422.816 279.148,422.816 277.02,421.089 274.476,420.069 271.743,419.848 269.068,420.444 266.689,421.806 264.819,423.81 263.626,426.277 263.216,428.987 263.626,431.698 264.819,434.165 266.689,436.169 269.068,437.531 271.743,438.127 274.476,437.906 277.02,436.886 279.148,435.159 279.148,435.159 280.331,434.2 281.744,433.633 283.262,433.51 284.749,433.841 286.07,434.598 287.109,435.711 287.772,437.082 288,438.587 288,438.587 288,480 "/>
        <polyline fill="none" stroke="#000000" stroke-width="1" points="  384,384 384,423.215 384,423.215 384.259,424.88 385.01,426.388 386.184,427.596 387.669,428.392 389.325,428.699 390.997,428.489 392.526,427.782 393.768,426.644 393.768,426.644 396.005,424.596 398.757,423.323 401.766,422.945 404.747,423.498 407.42,424.93 409.533,427.105 410.886,429.819 411.351,432.815 410.886,435.812 409.533,438.526 407.42,440.701 404.747,442.133 401.766,442.686 398.757,442.308 396.005,441.035 393.768,438.987 393.768,438.987 392.526,437.849 390.997,437.142 389.325,436.932 387.669,437.239 386.184,438.035 385.01,439.243 384.259,440.751 384,442.415 384,442.415 384,480 "/>
        <polyline fill="none" stroke="#000000" stroke-width="1" points="  480,384 480,423.328 480,423.328 480.23,424.848 480.901,426.23 481.952,427.352 483.288,428.112 484.789,428.441 486.321,428.311 487.744,427.732 488.932,426.757 488.932,426.757 491.071,425.001 493.634,423.959 496.39,423.724 499.092,424.317 501.497,425.684 503.389,427.704 504.596,430.193 505.011,432.928 504.596,435.663 503.389,438.152 501.497,440.172 499.092,441.539 496.39,442.132 493.634,441.897 491.071,440.855 488.932,439.099 488.932,439.099 487.744,438.124 486.321,437.545 484.789,437.415 483.288,437.744 481.952,438.504 480.901,439.626 480.23,441.008 480,442.528 480,442.528 480,480 "/>
        <polyline fill="none" stroke="#000000" stroke-width="1" points="  576,384 576,416.232 576,416.232 575.762,417.791 575.069,419.208 573.985,420.353 572.608,421.123 571.065,421.446 569.495,421.294 568.042,420.68 566.839,419.66 566.839,419.66 564.673,417.825 562.058,416.72 559.233,416.446 556.454,417.028 553.976,418.414 552.025,420.475 550.778,423.026 550.349,425.832 550.778,428.638 552.025,431.188 553.976,433.25 556.454,434.635 559.233,435.217 562.058,434.944 564.673,433.839 566.839,432.003 566.839,432.003 568.042,430.984 569.495,430.37 571.065,430.218 572.608,430.541 573.985,431.311 575.069,432.456 575.762,433.873 576,435.432 576,435.432 576,480 "/>
        <polyline fill="none" stroke="#000000" stroke-width="1" points="  672,384 672,418.841 672,418.841 672.243,420.423 672.948,421.859 674.051,423.018 675.451,423.793 677.019,424.113 678.611,423.949 680.08,423.315 681.292,422.27 681.292,422.27 683.473,420.389 686.118,419.248 688.983,418.951 691.805,419.527 694.325,420.923 696.311,423.009 697.581,425.594 698.017,428.441 697.581,431.288 696.311,433.874 694.325,435.96 691.805,437.355 688.983,437.931 686.118,437.635 683.473,436.494 681.292,434.613 681.292,434.613 680.08,433.568 678.611,432.934 677.019,432.769 675.451,433.089 674.051,433.864 672.948,435.023 672.243,436.46 672,438.041 672,438.041 672,480 "/>
        <polyline fill="none" stroke="#000000" stroke-width="1" points="  96,480 96,521.965 96,521.965 95.7391,523.641 94.9811,525.158 93.7976,526.374 92.3008,527.172 90.6321,527.477 88.9496,527.261 87.4123,526.544 86.1659,525.393 86.1659,525.393 83.9222,523.322 81.1552,522.031 78.1267,521.642 75.1231,522.191 72.4287,523.628 70.2985,525.816 68.9341,528.547 68.4644,531.565 68.9341,534.582 70.2985,537.313 72.4287,539.501 75.1231,540.938 78.1267,541.488 81.1552,541.098 83.9222,539.807 86.1659,537.736 86.1659,537.736 87.4123,536.585 88.9496,535.868 90.6321,535.652 92.3008,535.957 93.7976,536.755 94.9811,537.971 95.7391,539.488 96,541.165 96,541.165 96,576 "/>
        <polyline fill="none" stroke="#000000" stroke-width="1" points="  192,480 192,516.26 192,516.26 192.243,517.843 192.949,519.28 194.053,520.44 195.454,521.215 197.024,521.535 198.617,521.37 200.087,520.735 201.299,519.688 201.299,519.688 203.481,517.805 206.127,516.662 208.994,516.364 211.819,516.94 214.341,518.336 216.329,520.423 217.6,523.01 218.037,525.86 217.6,528.709 216.329,531.296 214.341,533.384 211.819,534.779 208.994,535.355 206.127,535.058 203.481,533.915 201.299,532.031 201.299,532.031 200.087,530.985 198.617,530.35 197.024,530.184 195.454,530.504 194.053,531.28 192.949,532.439 192.243,533.877 192,535.46 192,535.46 192,576 "/>
        <polyline fill="none" stroke="#000000" stroke-width="1" points="  288,480 288,515.222 288,515.222 288.267,516.929 289.042,518.473 290.252,519.707 291.78,520.512 293.482,520.813 295.194,520.58 296.753,519.835 298.01,518.651 298.01,518.651 300.274,516.518 303.08,515.177 306.162,514.758 309.224,515.299 311.976,516.749 314.153,518.97 315.548,521.749 316.029,524.822 315.548,527.895 314.153,530.674 311.976,532.895 309.224,534.345 306.162,534.886 303.08,534.466 300.274,533.126 298.01,530.993 298.01,530.993 296.753,529.808 295.194,529.064 293.482,528.831 291.78,529.131 290.252,529.937 289.042,531.171 288.267,532.715 288,534.422 288,534.422 288,576 "/>
        <polyline fill="none" stroke="#000000" stroke-width="1" points="  384,480 384,509.214 384,509.214 383.745,510.86 383.004,512.351 381.847,513.547 380.382,514.338 378.746,514.648 377.094,514.449 375.578,513.759 374.343,512.643 374.343,512.643 372.12,510.634 369.393,509.392 366.417,509.033 363.473,509.592 360.836,511.015 358.753,513.169 357.42,515.853 356.961,518.814 357.42,521.776 358.753,524.459 360.836,526.614 363.473,528.037 366.417,528.596 369.393,528.237 372.12,526.995 374.343,524.986 374.343,524.986 375.578,523.87 377.094,523.18 378.746,522.98 380.382,523.291 381.847,524.081 383.004,525.278 383.745,526.769 384,528.414 384,528.414 384,576 "/>
        <polyline fill="none" stroke="#000000" stroke-width="1" points="  480,480 480,513.248 480,513.248 480.22,514.713 480.861,516.049 481.865,517.138 483.145,517.884 484.588,518.222 486.066,518.121 487.45,517.59 488.616,516.676 488.616,516.676 490.716,515.032 493.206,514.076 495.867,513.894 498.464,514.501 500.769,515.844 502.577,517.805 503.73,520.21 504.126,522.848 503.73,525.485 502.577,527.89 500.769,529.851 498.464,531.194 495.867,531.801 493.206,531.619 490.716,530.663 488.616,529.019 488.616,529.019 487.45,528.105 486.066,527.575 484.588,527.473 483.145,527.811 481.865,528.557 480.861,529.646 480.22,530.982 480,532.448 480,532.448 480,576 "/>
        <polyline fill="none" stroke="#000000" stroke-width="1" points="  576,480 576,518.129 576,518.129 576.225,519.62 576.88,520.979 577.907,522.084 579.215,522.837 580.686,523.17 582.19,523.055 583.593,522.501 584.77,521.557 584.77,521.557 586.889,519.859 589.415,518.861 592.122,518.653 594.77,519.254 597.124,520.609 598.972,522.598 600.152,525.043 600.557,527.729 600.152,530.414 598.972,532.86 597.124,534.849 594.77,536.204 592.122,536.804 589.415,536.596 586.889,535.598 584.77,533.9 584.77,533.9 583.593,532.956 582.19,532.402 580.686,532.287 579.215,532.62 577.907,533.373 576.88,534.478 576.225,535.837 576,537.329 576,537.329 576,576 "/>
        <polyline fill="none" stroke="#000000" stroke-width="1" points="  672,480 672,523.617 672,523.617 672.235,525.159 672.918,526.56 673.987,527.695 675.345,528.46 676.87,528.786 678.423,528.644 679.862,528.045 681.059,527.046 681.059,527.046 683.212,525.246 685.804,524.169 688.599,523.913 691.343,524.5 693.788,525.877 695.713,527.92 696.942,530.443 697.365,533.217 696.942,535.992 695.713,538.515 693.788,540.557 691.343,541.934 688.599,542.521 685.804,542.265 683.212,541.188 681.059,539.389 681.059,539.389 679.862,538.389 678.423,537.791 676.87,537.648 675.345,537.974 673.987,538.739 672.918,539.874 672.235,541.276 672,542.817 672,542.817 672,576 "/>
        <polyline fill="none" stroke="#000000" stroke-width="1" points="  96,576 96,616.928 96,616.928 96.2377,618.485 96.9292,619.9 98.0115,621.044 99.3859,621.813 100.927,622.136 102.495,621.985 103.946,621.373 105.148,620.356 105.148,620.356 107.313,618.526 109.925,617.424 112.746,617.152 115.521,617.735 117.994,619.119 119.942,621.179 121.187,623.725 121.615,626.528 121.187,629.33 119.942,631.877 117.994,633.936 115.521,635.32 112.746,635.903 109.925,635.631 107.313,634.53 105.148,632.699 105.148,632.699 103.946,631.682 102.495,631.07 100.927,630.919 99.3859,631.243 98.0115,632.012 96.9292,633.156 96.2377,634.571 96,636.128 96,636.128 96,672 "/>
        <polyline fill="none" stroke="#000000" stroke-width="1" points="  192,576 192,622.901 192,622.901 191.73,624.623 190.946,626.181 189.723,627.424 188.179,628.234 186.46,628.532 184.734,628.29 183.163,627.532 181.9,626.329 181.9,626.329 179.627,624.165 176.801,622.8 173.692,622.365 170.599,622.901 167.819,624.358 165.618,626.596 164.207,629.4 163.721,632.501 164.207,635.602 165.618,638.405 167.819,640.643 170.599,642.1 173.692,642.637 176.801,642.201 179.627,640.836 181.9,638.672 181.9,638.672 183.163,637.47 184.734,636.711 186.46,636.47 188.179,636.768 189.723,637.577 190.946,638.82 191.73,640.378 192,642.101 192,642.101 192,672 "/>
        <polyline fill="none" stroke="#000000" stroke-width="1" points="  288,576 288,616.776 288,616.776 288.252,618.409 288.986,619.888 290.132,621.078 291.584,621.865 293.206,622.178 294.847,621.985 296.353,621.307 297.584,620.205 297.584,620.205 299.799,618.221 302.509,617 305.462,616.653 308.382,617.215 310.996,618.633 313.059,620.774 314.38,623.438 314.834,626.376 314.38,629.314 313.059,631.978 310.996,634.119 308.382,635.537 305.462,636.099 302.509,635.753 299.799,634.531 297.584,632.548 297.584,632.548 296.353,631.446 294.847,630.767 293.206,630.575 291.584,630.887 290.132,631.674 288.986,632.864 288.252,634.344 288,635.976 288,635.976 288,672 "/>
        <polyline fill="none" stroke="#000000" stroke-width="1" points="  384,576 384,621.335 384,621.335 383.782,622.79 383.148,624.117 382.152,625.2 380.883,625.943 379.452,626.282 377.984,626.187 376.609,625.665 375.446,624.764 375.446,624.764 373.354,623.141 370.879,622.203 368.237,622.032 365.66,622.642 363.376,623.98 361.584,625.929 360.442,628.317 360.05,630.935 360.442,633.554 361.584,635.942 363.376,637.891 365.66,639.229 368.237,639.839 370.879,639.668 373.354,638.729 375.446,637.107 375.446,637.107 376.609,636.205 377.984,635.684 379.452,635.589 380.883,635.928 382.152,636.671 383.148,637.754 383.782,639.081 384,640.535 384,640.535 384,672 "/>
        <polyline fill="none" stroke="#000000" stroke-width="1" points="  480,576 480,619.059 480,619.059 479.79,620.472 479.179,621.763 478.219,622.82 476.993,623.553 475.607,623.898 474.18,623.826 472.836,623.341 471.691,622.488 471.691,622.488 469.63,620.951 467.211,620.079 464.643,619.949 462.148,620.57 459.941,621.889 458.213,623.792 457.113,626.116 456.735,628.659 457.113,631.202 458.213,633.526 459.941,635.43 462.148,636.749 464.643,637.37 467.211,637.239 469.63,636.367 471.691,634.831 471.691,634.831 472.836,633.977 474.18,633.493 475.607,633.42 476.993,633.765 478.219,634.498 479.179,635.555 479.79,636.846 480,638.259 480,638.259 480,672 "/>
        <polyline fill="none" stroke="#000000" stroke-width="1" points="  576,576 576,607.278 576,607.278 575.75,608.898 575.023,610.367 573.887,611.549 572.448,612.333 570.839,612.647 569.211,612.462 567.714,611.794 566.488,610.706 566.488,610.706 564.281,608.748 561.586,607.546 558.655,607.212 555.759,607.777 553.168,609.189 551.124,611.317 549.815,613.962 549.365,616.878 549.815,619.794 551.124,622.438 553.168,624.566 555.759,625.978 558.655,626.543 561.586,626.209 564.281,625.007 566.488,623.049 566.488,623.049 567.714,621.961 569.211,621.293 570.839,621.108 572.448,621.422 573.887,622.206 575.023,623.388 575.75,624.858 576,626.478 576,626.478 576,672 "/>
        <polyline fill="none" stroke="#000000" stroke-width="1" points="  672,576 672,622.929 672,622.929 672.227,624.428 672.886,625.794 673.919,626.903 675.234,627.658 676.714,627.99 678.225,627.871 679.634,627.31 680.814,626.358 680.814,626.358 682.938,624.644 685.474,623.635 688.194,623.419 690.857,624.018 693.224,625.376 695.084,627.373 696.271,629.831 696.679,632.529 696.271,635.228 695.084,637.685 693.224,639.682 690.857,641.041 688.194,641.639 685.474,641.424 682.938,640.414 680.814,638.701 680.814,638.701 679.634,637.749 678.225,637.188 676.714,637.068 675.234,637.4 673.919,638.155 672.886,639.265 672.227,640.63 672,642.129 672,642.129 672,672 "/>
        <polyline fill="none" stroke="#000000" stroke-width="1" points="  96,672 96,702.601 96,702.601 95.7294,704.327 94.9435,705.887 93.7177,707.133 92.1697,707.943 90.448,708.24 88.7179,707.997 87.1453,707.235 85.8811,706.029 85.8811,706.029 83.6057,703.858 80.775,702.488 77.6607,702.05 74.5616,702.585 71.7753,704.044 69.5689,706.285 68.1543,709.094 67.6672,712.201 68.1543,715.308 69.5689,718.117 71.7753,720.358 74.5616,721.816 77.6607,722.352 80.775,721.914 83.6057,720.543 85.8811,718.372 85.8811,718.372 87.1453,717.166 88.7179,716.405 90.448,716.161 92.1697,716.459 93.7177,717.269 94.9435,718.514 95.7294,720.075 96,721.801 96,721.801 96,768 "/>
        <polyline fill="none" stroke="#000000" stroke-width="1" points="  192,672 192,711.674 192,711.674 192.228,713.181 192.892,714.552 193.931,715.666 195.254,716.423 196.742,716.754 198.261,716.631 199.675,716.063 200.858,715.102 200.858,715.102 202.987,713.373 205.533,712.352 208.267,712.129 210.944,712.725 213.326,714.087 215.197,716.092 216.392,718.562 216.802,721.274 216.392,723.986 215.197,726.455 213.326,728.461 210.944,729.822 208.267,730.419 205.533,730.196 202.987,729.174 200.858,727.445 200.858,727.445 199.675,726.485 198.261,725.917 196.742,725.793 195.254,726.125 193.931,726.881 192.892,727.995 192.228,729.367 192,730.874 192,730.874 192,768 "/>
        <polyline fill="none" stroke="#000000" stroke-width="1" points="  288,672 288,707.559 288,707.559 287.766,709.097 287.085,710.496 286.019,711.629 284.663,712.393 283.142,712.72 281.593,712.579 280.156,711.983 278.96,710.987 278.96,710.987 276.809,709.195 274.222,708.123 271.433,707.87 268.695,708.458 266.256,709.833 264.336,711.873 263.11,714.39 262.689,717.159 263.11,719.927 264.336,722.445 266.256,724.484 268.695,725.86 271.433,726.448 274.222,726.195 276.809,725.123 278.96,723.33 278.96,723.33 280.156,722.334 281.593,721.739 283.142,721.598 284.663,721.925 286.019,722.689 287.085,723.822 287.766,725.221 288,726.759 288,726.759 288,768 "/>
        <polyline fill="none" stroke="#000000" stroke-width="1" points="  384,672 384,718.454 384,718.454 383.745,720.099 383.004,721.59 381.847,722.787 380.381,723.578 378.745,723.888 377.092,723.689 375.577,722.999 374.341,721.882 374.341,721.882 372.117,719.872 369.39,718.63 366.414,718.271 363.469,718.829 360.831,720.252 358.748,722.407 357.414,725.092 356.955,728.054 357.414,731.016 358.748,733.7 360.831,735.855 363.469,737.278 366.414,737.836 369.39,737.477 372.117,736.235 374.341,734.225 374.341,734.225 375.577,733.108 377.092,732.418 378.745,732.219 380.381,732.529 381.847,733.32 383.004,734.517 383.745,736.008 384,737.654 384,737.654 384,768 "/>
        <polyline fill="none" stroke="#000000" stroke-width="1" points="  480,672 480,717.251 480,717.251 479.773,718.753 479.111,720.122 478.075,721.233 476.757,721.989 475.274,722.32 473.759,722.199 472.348,721.635 471.166,720.679 471.166,720.679 469.04,718.959 466.5,717.944 463.773,717.725 461.104,718.322 458.73,719.682 456.865,721.683 455.674,724.146 455.265,726.851 455.674,729.555 456.865,732.018 458.73,734.019 461.104,735.379 463.773,735.976 466.5,735.758 469.04,734.743 471.166,733.022 471.166,733.022 472.348,732.066 473.759,731.502 475.274,731.381 476.757,731.713 478.075,732.468 479.111,733.58 479.773,734.948 480,736.451 480,736.451 480,768 "/>
        <polyline fill="none" stroke="#000000" stroke-width="1" points="  576,672 576,718.047 576,718.047 575.764,719.593 575.079,720.999 574.006,722.136 572.642,722.903 571.113,723.228 569.555,723.083 568.112,722.481 566.914,721.476 566.914,721.476 564.757,719.667 562.159,718.582 559.356,718.321 556.603,718.907 554.149,720.286 552.217,722.334 550.983,724.864 550.559,727.647 550.983,730.43 552.217,732.96 554.149,735.008 556.603,736.387 559.356,736.973 562.159,736.712 564.757,735.627 566.914,733.818 566.914,733.818 568.112,732.813 569.555,732.211 571.113,732.066 572.642,732.391 574.006,733.158 575.079,734.295 575.764,735.701 576,737.247 576,737.247 576,768 "/>
        <polyline fill="none" stroke="#000000" stroke-width="1" points="  672,672 672,709.669 672,709.669 671.739,711.345 670.981,712.862 669.798,714.078 668.301,714.876 666.633,715.181 664.951,714.965 663.414,714.248 662.167,713.098 662.167,713.098 659.924,711.027 657.157,709.736 654.129,709.347 651.126,709.897 648.432,711.334 646.302,713.521 644.938,716.252 644.468,719.269 644.938,722.286 646.302,725.017 648.432,727.204 651.126,728.641 654.129,729.191 657.157,728.802 659.924,727.511 662.167,725.44 662.167,725.44 663.414,724.29 664.951,723.573 666.633,723.357 668.301,723.662 669.798,724.46 670.981,725.676 671.739,727.193 672,728.869 672,728.869 672,768 "/>
        <polyline fill="none" stroke="#000000" stroke-width="1" points="  96,768 96,811.605 96,811.605 95.7585,813.182 95.0561,814.614 93.9573,815.769 92.5629,816.543 91.0007,816.864 89.4142,816.702 87.9488,816.073 86.739,815.034 86.739,815.034 84.5614,813.164 81.9238,812.031 79.068,811.74 76.2562,812.318 73.7462,813.711 71.7683,815.791 70.504,818.368 70.0693,821.205 70.504,824.043 71.7683,826.62 73.7462,828.7 76.2562,830.093 79.068,830.671 81.9238,830.38 84.5614,829.247 86.739,827.377 86.739,827.377 87.9488,826.338 89.4142,825.709 91.0007,825.547 92.5629,825.868 93.9573,826.642 95.0561,827.797 95.7585,829.229 96,830.805 96,830.805 96,864 "/>
        <polyline fill="none" stroke="#000000" stroke-width="1" points="  192,768 192,814.993 192,814.993 192.217,816.444 192.85,817.768 193.842,818.848 195.108,819.591 196.535,819.93 197.999,819.837 199.372,819.319 200.533,818.422 200.533,818.422 202.622,816.806 205.093,815.874 207.729,815.706 210.298,816.317 212.576,817.653 214.363,819.598 215.501,821.981 215.892,824.593 215.501,827.205 214.363,829.588 212.576,831.533 210.298,832.869 207.729,833.48 205.093,833.312 202.622,832.38 200.533,830.764 200.533,830.764 199.372,829.867 197.999,829.349 196.535,829.255 195.108,829.595 193.842,830.337 192.85,831.418 192.217,832.742 192,834.193 192,834.193 192,864 "/>
        <polyline fill="none" stroke="#000000" stroke-width="1" points="  288,768 288,810.655 288,810.655 288.257,812.311 289.004,813.811 290.17,815.014 291.646,815.808 293.294,816.116 294.957,815.911 296.48,815.212 297.719,814.083 297.719,814.083 299.949,812.053 302.691,810.793 305.684,810.424 308.649,810.979 311.307,812.407 313.406,814.573 314.75,817.274 315.213,820.255 314.75,823.236 313.406,825.936 311.307,828.102 308.649,829.53 305.684,830.086 302.691,829.716 299.949,828.457 297.719,826.426 297.719,826.426 296.48,825.298 294.957,824.598 293.294,824.393 291.646,824.702 290.17,825.495 289.004,826.698 288.257,828.199 288,829.855 288,829.855 288,864 "/>
        <polyline fill="none" stroke="#000000" stroke-width="1" points="  384,768 384,803.588 384,803.588 383.736,805.281 382.968,806.814 381.77,808.04 380.255,808.842 378.567,809.145 376.868,808.919 375.318,808.186 374.066,807.016 374.066,807.016 371.811,804.91 369.021,803.591 365.963,803.184 362.926,803.729 360.199,805.174 358.042,807.38 356.66,810.139 356.184,813.188 356.66,816.236 358.042,818.995 360.199,821.202 362.926,822.646 365.963,823.191 369.021,822.784 371.811,821.465 374.066,819.359 374.066,819.359 375.318,818.189 376.868,817.456 378.567,817.23 380.255,817.533 381.77,818.335 382.968,819.561 383.736,821.094 384,822.788 384,822.788 384,864 "/>
        <polyline fill="none" stroke="#000000" stroke-width="1" points="  480,768 480,813.097 480,813.097 479.768,814.622 479.095,816.009 478.039,817.134 476.698,817.895 475.191,818.224 473.654,818.09 472.227,817.507 471.036,816.526 471.036,816.526 468.894,814.759 466.324,813.709 463.558,813.468 460.846,814.06 458.431,815.43 456.531,817.455 455.319,819.952 454.902,822.697 455.319,825.442 456.531,827.939 458.431,829.964 460.846,831.334 463.558,831.926 466.324,831.685 468.894,830.634 471.036,828.868 471.036,828.868 472.227,827.887 473.654,827.304 475.191,827.17 476.698,827.498 478.039,828.26 479.095,829.385 479.768,830.772 480,832.297 480,832.297 480,864 "/>
        <polyline fill="none" stroke="#000000" stroke-width="1" points="  576,768 576,812.991 576,812.991 576.267,814.699 577.043,816.245 578.254,817.48 579.784,818.286 581.487,818.586 583.201,818.352 584.761,817.606 586.019,816.419 586.019,816.419 588.284,814.283 591.092,812.941 594.176,812.519 597.242,813.06 599.996,814.511 602.176,816.733 603.573,819.515 604.054,822.591 603.573,825.666 602.176,828.448 599.996,830.671 597.242,832.121 594.176,832.662 591.092,832.241 588.284,830.898 586.019,828.762 586.019,828.762 584.761,827.575 583.201,826.83 581.487,826.596 579.784,826.896 578.254,827.702 577.043,828.937 576.267,830.482 576,832.191 576,832.191 576,864 "/>
        <polyline fill="none" stroke="#000000" stroke-width="1" points="  672,768 672,797.754 672,797.754 671.747,799.392 671.01,800.876 669.86,802.068 668.403,802.856 666.776,803.168 665.131,802.973 663.621,802.29 662.389,801.183 662.389,801.183 660.171,799.19 657.454,797.961 654.493,797.61 651.564,798.171 648.942,799.59 646.871,801.736 645.546,804.407 645.09,807.354 645.546,810.301 646.871,812.973 648.942,815.118 651.564,816.538 654.493,817.099 657.454,816.748 660.171,815.519 662.389,813.526 662.389,813.526 663.621,812.419 665.131,811.736 666.776,811.541 668.403,811.852 669.86,812.641 671.01,813.833 671.747,815.317 672,816.954 672,816.954 672,864 "/>
        <polyline fill="none" stroke="#000000" stroke-width="1" points="  96,864 96,900.696 96,900.696 96.2337,902.231 96.9135,903.628 97.978,904.76 99.3308,905.524 100.85,905.851 102.397,905.711 103.833,905.118 105.027,904.124 105.027,904.124 107.177,902.336 109.761,901.268 112.546,901.017 115.28,901.605 117.715,902.98 119.631,905.017 120.855,907.531 121.275,910.296 120.855,913.06 119.631,915.575 117.715,917.611 115.28,918.986 112.546,919.574 109.761,919.323 107.177,918.255 105.027,916.467 105.027,916.467 103.833,915.474 102.397,914.88 100.85,914.741 99.3308,915.068 97.978,915.831 96.9135,916.963 96.2337,918.36 96,919.896 96,919.896 96,960 "/>
        <polyline fill="none" stroke="#000000" stroke-width="1" points="  192,864 192,904.408 192,904.408 192.206,905.802 192.807,907.076 193.75,908.122 194.956,908.85 196.321,909.197 197.729,909.135 199.058,908.668 200.195,907.837 200.195,907.837 202.392,906.262 204.968,905.442 207.671,905.455 210.239,906.3 212.421,907.895 214.006,910.085 214.839,912.657 214.839,915.36 214.006,917.931 212.421,920.121 210.239,921.717 207.671,922.562 204.968,922.575 202.392,921.754 200.195,920.18 200.195,920.18 199.058,919.348 197.729,918.881 196.321,918.819 194.956,919.167 193.75,919.895 192.807,920.94 192.206,922.215 192,923.608 192,923.608 192,960 "/>
        <polyline fill="none" stroke="#000000" stroke-width="1" points="  288,864 288,895.05 288,895.05 287.73,896.771 286.947,898.327 285.726,899.569 284.183,900.378 282.466,900.677 280.741,900.436 279.172,899.679 277.91,898.478 277.91,898.478 275.637,896.317 272.813,894.955 269.707,894.521 266.618,895.059 263.841,896.515 261.642,898.751 260.232,901.552 259.747,904.65 260.232,907.748 261.642,910.549 263.841,912.785 266.618,914.241 269.707,914.778 272.813,914.345 275.637,912.982 277.91,910.821 277.91,910.821 279.172,909.621 280.741,908.864 282.466,908.623 284.183,908.921 285.726,909.73 286.947,910.973 287.73,912.529 288,914.25 288,914.25 288,960 "/>
        <polyline fill="none" stroke="#000000" stroke-width="1" points="  384,864 384,907.696 384,907.696 384.219,909.156 384.856,910.487 385.856,911.573 387.131,912.317 388.567,912.655 390.04,912.557 391.419,912.032 392.583,911.124 392.583,911.124 394.679,909.491 397.162,908.545 399.813,908.368 402.399,908.977 404.693,910.318 406.492,912.272 407.64,914.668 408.034,917.296 407.64,919.923 406.492,922.32 404.693,924.274 402.399,925.614 399.813,926.223 397.162,926.047 394.679,925.1 392.583,923.467 392.583,923.467 391.419,922.56 390.04,922.034 388.567,921.936 387.131,922.274 385.856,923.019 384.856,924.105 384.219,925.436 384,926.896 384,926.896 384,960 "/>
        <polyline fill="none" stroke="#000000" stroke-width="1" points="  480,864 480,909.221 480,909.221 480.257,910.875 481.002,912.373 482.167,913.575 483.641,914.368 485.286,914.677 486.947,914.473 488.468,913.775 489.707,912.649 489.707,912.649 491.936,910.623 494.674,909.367 497.664,909 500.625,909.556 503.278,910.983 505.375,913.147 506.717,915.844 507.178,918.821 506.717,921.798 505.375,924.495 503.278,926.659 500.625,928.086 497.664,928.642 494.674,928.275 491.936,927.019 489.707,924.992 489.707,924.992 488.468,923.866 486.947,923.169 485.286,922.965 483.641,923.274 482.167,924.066 481.002,925.268 480.257,926.767 480,928.421 480,928.421 480,960 "/>
        <polyline fill="none" stroke="#000000" stroke-width="1" points="  576,864 576,907.089 576,907.089 576.211,908.509 576.826,909.805 577.792,910.867 579.025,911.602 580.419,911.946 581.852,911.869 583.201,911.379 584.349,910.517 584.349,910.517 586.415,908.967 588.843,908.084 591.423,907.947 593.931,908.566 596.151,909.888 597.889,911.799 598.997,914.133 599.377,916.689 598.997,919.244 597.889,921.578 596.151,923.489 593.931,924.812 591.423,925.431 588.843,925.293 586.415,924.411 584.349,922.86 584.349,922.86 583.201,921.999 581.852,921.509 580.419,921.432 579.025,921.776 577.792,922.511 576.826,923.572 576.211,924.869 576,926.289 576,926.289 576,960 "/>
        <polyline fill="none" stroke="#000000" stroke-width="1" points="  672,864 672,907.167 672,907.167 671.78,908.632 671.139,909.968 670.134,911.058 668.854,911.804 667.411,912.141 665.933,912.04 664.549,911.509 663.382,910.595 663.382,910.595 661.282,908.95 658.792,907.995 656.131,907.812 653.533,908.419 651.228,909.763 649.42,911.723 648.267,914.129 647.871,916.767 648.267,919.405 649.42,921.81 651.228,923.771 653.533,925.114 656.131,925.721 658.792,925.539 661.282,924.583 663.382,922.938 663.382,922.938 664.549,922.024 665.933,921.493 667.411,921.392 668.854,921.729 670.134,922.476 671.139,923.565 671.78,924.901 672,926.367 672,926.367 672,960 "/>
    </g>
</svg>
